<?xml version="1.0" encoding="UTF-8" standalone="no"?>
<!-- Created with Inkscape (http://www.inkscape.org/) -->

<svg
   xmlns:dc="http://purl.org/dc/elements/1.1/"
   xmlns:cc="http://creativecommons.org/ns#"
   xmlns:rdf="http://www.w3.org/1999/02/22-rdf-syntax-ns#"
   xmlns:svg="http://www.w3.org/2000/svg"
   xmlns="http://www.w3.org/2000/svg"
   xmlns:xlink="http://www.w3.org/1999/xlink"
   xmlns:sodipodi="http://sodipodi.sourceforge.net/DTD/sodipodi-0.dtd"
   xmlns:inkscape="http://www.inkscape.org/namespaces/inkscape"
   width="1280"
   height="720"
   viewBox="0 0 338.66666 190.50001"
   version="1.1"
   id="svg8"
   inkscape:version="0.92.3 (2405546, 2018-03-11)"
   sodipodi:docname="neon-text.svg"
   inkscape:export-filename="C:\Users\Jerliyah\Desktop\Projects\inkscape-projects\neon-text\neon-text.png"
   inkscape:export-xdpi="96"
   inkscape:export-ydpi="96">
  <sodipodi:namedview
     id="base"
     pagecolor="#aaaaaa"
     bordercolor="#666666"
     borderopacity="1.0"
     inkscape:pageopacity="0"
     inkscape:pageshadow="2"
     inkscape:zoom="0.50558135"
     inkscape:cx="653.12711"
     inkscape:cy="-131.66779"
     inkscape:document-units="px"
     inkscape:current-layer="layer1"
     showgrid="false"
     units="px"
     showborder="false"
     fit-margin-top="0"
     fit-margin-left="0"
     fit-margin-right="0"
     fit-margin-bottom="0"
     inkscape:window-width="1278"
     inkscape:window-height="1368"
     inkscape:window-x="1273"
     inkscape:window-y="0"
     inkscape:window-maximized="0"
     inkscape:object-nodes="false" />
  <defs
     id="defs2">
    <linearGradient
       inkscape:collect="always"
       id="linearGradient1029">
      <stop
         style="stop-color:#000000;stop-opacity:0.75"
         offset="0"
         id="stop1025" />
      <stop
         id="stop1033"
         offset="0.63852471"
         style="stop-color:#000000;stop-opacity:0.85" />
      <stop
         style="stop-color:#000000;stop-opacity:0.95"
         offset="1"
         id="stop1027" />
    </linearGradient>
    <filter
       inkscape:collect="always"
       style="color-interpolation-filters:sRGB"
       id="filter993"
       x="-0.043556534"
       width="1.0871131"
       y="-0.20750725"
       height="1.4150145">
      <feGaussianBlur
         inkscape:collect="always"
         stdDeviation="2.3067907"
         id="feGaussianBlur995" />
    </filter>
    <filter
       inkscape:collect="always"
       style="color-interpolation-filters:sRGB"
       id="filter1005"
       x="-0.029039819"
       width="1.0580796"
       y="-0.13828984"
       height="1.2765797">
      <feGaussianBlur
         inkscape:collect="always"
         stdDeviation="1.5373249"
         id="feGaussianBlur1007" />
    </filter>
    <filter
       inkscape:collect="always"
       style="color-interpolation-filters:sRGB"
       id="filter1013"
       x="-0.014520965"
       width="1.0290419"
       y="-0.069120981"
       height="1.138242">
      <feGaussianBlur
         inkscape:collect="always"
         stdDeviation="0.76839398"
         id="feGaussianBlur1015" />
    </filter>
    <radialGradient
       inkscape:collect="always"
       xlink:href="#linearGradient1029"
       id="radialGradient1031"
       cx="-28.054794"
       cy="-104.97609"
       fx="-28.054794"
       fy="-104.97609"
       r="169.33333"
       gradientTransform="matrix(1,0,0,0.56250002,13.787344,-126.15667)"
       gradientUnits="userSpaceOnUse" />
  </defs>
  <metadata
     id="metadata5">
    <rdf:RDF>
      <cc:Work
         rdf:about="">
        <dc:format>image/svg+xml</dc:format>
        <dc:type
           rdf:resource="http://purl.org/dc/dcmitype/StillImage" />
        <dc:title></dc:title>
      </cc:Work>
    </rdf:RDF>
  </metadata>
  <g
     id="layer1"
     inkscape:groupmode="layer"
     inkscape:label="Layer 1"
     transform="translate(183.60077,280.45575)">
    <rect
       y="-280.45575"
       x="-183.60077"
       height="190.5"
       width="338.66666"
       id="rect860"
       style="opacity:1;fill:#0066ff;fill-opacity:1;stroke:#000080;stroke-width:0;stroke-linecap:round;stroke-linejoin:round;stroke-miterlimit:4;stroke-dasharray:none" />
    <rect
       style="opacity:1;fill:url(#radialGradient1031);fill-opacity:1;stroke:#000080;stroke-width:0;stroke-linecap:round;stroke-linejoin:round;stroke-miterlimit:4;stroke-dasharray:none"
       id="rect1023"
       width="338.66666"
       height="190.5"
       x="-183.60077"
       y="-280.45575" />
    <path
       style="font-style:normal;font-variant:normal;font-weight:normal;font-stretch:normal;font-size:84.16508484px;line-height:1.25;font-family:'Learning Curve';-inkscape-font-specification:'Learning Curve, Normal';font-variant-ligatures:normal;font-variant-caps:normal;font-variant-numeric:normal;font-feature-settings:normal;text-align:start;letter-spacing:0px;word-spacing:0px;writing-mode:lr-tb;text-anchor:start;fill:#0066ff;fill-opacity:1;stroke:#0066ff;stroke-width:3.96875;stroke-miterlimit:4;stroke-dasharray:none;stroke-opacity:1;filter:url(#filter993)"
       d="m -2.8430277,-198.54574 c -1.178311,0 -2.244383,0.44892 -3.198254,1.34668 -0.897763,0.89776 -1.683126,1.99196 -2.356445,3.28249 -0.617212,1.23442 -1.094261,2.55256 -1.430922,3.95531 -0.2805493,1.40276 -0.4206463,2.60944 -0.4206463,3.61942 0,3.42272 1.0098283,5.8913 3.0297893,7.40626 0,0 1.189985,0.77228 1.851567,1.01027 0.833557,0.29985 1.767491,0.50488 2.609144,0.50488 2.07607196,0 4.0399946,-0.72964 5.8916286,-2.1885 1.907741,-1.45885 3.731572,-3.17019 5.4709849,-5.13404 0.114697,-0.11469 0.187217,-0.25746 0.223758,-0.42426 0.642501,-0.74517 1.3143422,-1.5291 2.0789432,-2.43706 0.953873,-1.06609 1.879332,-2.10404 2.777093,-3.11403 0.953873,-1.06609 1.823601,-1.99206 2.609143,-2.7776 0.841649,-0.84165 1.486919,-1.43068 1.935799,-1.76734 0.84165,-0.61721 1.54316,-0.92604 2.10426,-0.92604 0.392779,0 0.645359,0.1401 0.757579,0.42065 0.11222,0.28055 0.16847,0.6175 0.16847,1.01027 0,0.89776 -0.28071,2.16018 -0.841809,3.78737 -0.505,1.62719 -1.15026,3.39477 -1.9358,5.30252 -0.78554,1.90774 -1.655273,3.84354 -2.609147,5.80738 -0.89776,1.90774 -1.767496,3.61908 -2.609143,5.13406 -0.280554,0.5611 -0.420645,0.9819 -0.420645,1.26245 0,0.72943 0.364561,1.09399 1.093988,1.09399 0.112221,0 0.28044,-0.0562 0.504881,-0.16846 0.224441,-0.0561 0.448902,-0.25245 0.673343,-0.58912 0.336661,-0.56109 0.813708,-1.37459 1.43092,-2.44067 0.617203,-1.12221 1.318723,-2.32838 2.104263,-3.6189 0.84166,-1.34663 1.73899,-2.74966 2.692859,-4.20852 0.95387,-1.45886 1.93609,-2.83325 2.94607,-4.12378 1.851637,-2.30051 3.787436,-4.29256 5.807395,-5.97586 2.07607,-1.6833 4.09573,-2.52491 6.05958,-2.52492 0.44888,0 0.78583,0.0838 1.01027,0.25219 0.28056,0.11222 0.42065,0.47729 0.42065,1.0945 0,0.50499 -0.11197,1.15026 -0.33641,1.9358 -0.22444,0.72943 -0.50515,1.54292 -0.84181,2.44068 -0.33667,0.84165 -0.70122,1.71138 -1.09399,2.60914 -0.39277,0.89777 -0.78546,1.73937 -1.17822,2.52491 -0.95388,1.96385 -1.79549,3.81529 -2.52492,5.55469 -0.67332,1.73942 -1.01027,3.22629 -1.01027,4.46071 0,0.72944 0.22446,1.43095 0.67334,2.10427 0.505,0.6172 1.29036,0.92604 2.35645,0.92604 1.00998,0 2.16042,-0.39268 3.45095,-1.17822 1.290531,-0.84165 2.609191,-1.88012 3.95583,-3.11454 1.34665,-1.23443 2.69343,-2.58069 4.04006,-4.03954 1.40276,-1.51497 2.720901,-2.94612 3.955321,-4.29276 0.16833,-0.16832 0.2527,-0.39279 0.2527,-0.67334 0,-0.72943 -0.33644,-1.09399 -1.00976,-1.09399 -0.28055,0 -0.53314,0.11249 -0.757581,0.33693 -1.23442,1.40274 -2.52496,2.80526 -3.87159,4.20801 -1.29053,1.40275 -2.55294,2.69328 -3.787369,3.87159 -1.23442,1.1222 -2.384871,2.04818 -3.450951,2.7776 -1.0661,0.72944 -1.96395,1.094 -2.69338,1.094 -0.67332,0 -1.00976,-0.36456 -1.00976,-1.094 0,-0.50498 0.0838,-1.09452 0.25219,-1.76785 0.22444,-0.72942 0.50514,-1.48667 0.8418,-2.27221 0.33667,-0.84165 0.70123,-1.68325 1.094,-2.5249 0.39277,-0.84165 0.78597,-1.65513 1.17873,-2.44068 0.28056,-0.5611 0.61699,-1.29073 1.00976,-2.18849 0.44888,-0.89776 0.84156,-1.85135 1.178231,-2.86133 0.39276,-1.00998 0.72972,-2.02032 1.01027,-3.0303 0.28055,-1.00998 0.42064,-1.90784 0.42064,-2.69338 0,-0.95387 -0.33643,-1.68299 -1.00975,-2.18798 -0.673321,-0.5611 -1.515451,-0.84181 -2.525431,-0.84181 -2.58106,0 -5.10588,1.03795 -7.574729,3.11402 -2.468839,2.01996 -4.853566,4.57291 -7.154086,7.65897 0.44888,-1.1222 0.89781,-2.41274 1.34669,-3.8716 0.44888,-1.51497 0.67335,-2.6649 0.67335,-3.45044 0,-0.84165 -0.2802,-1.65513 -0.8413,-2.44067 -0.50498,-0.78554 -1.26274,-1.17874 -2.272729,-1.17874 -1.00998,0 -2.1323,0.44893 -3.36672,1.34668 -0.50499,0.39277 -1.178381,1.00992 -2.020028,1.85157 -0.841653,0.84165 -1.738993,1.79575 -2.692858,2.86184 -0.953873,1.00998 -1.907969,2.07606 -2.8618422,3.19826 -0.89776,1.06609 -1.7112509,2.02019 -2.4406779,2.86184 -0.148489,0.14848 -0.243274,0.31012 -0.293521,0.48317 -3.681796,4.10637 -6.79348864,6.16551 -9.3317296,6.16551 -1.111081,-0.10464 -2.380203,-0.36745 -3.28249,-1.09398 -0.846574,-0.72213 -1.571014,-1.5993 -1.851565,-2.77761 -0.22444,-1.17831 -0.336415,-2.16002 -0.336415,-2.94556 0,-0.84165 0.111975,-1.82387 0.336415,-2.94607 0.280551,-1.17831 0.64511,-2.30011 1.093989,-3.36621 0.504992,-1.06608 1.066414,-1.96394 1.683618,-2.69337 0.673322,-0.72943 1.40244,-1.09451 2.187982,-1.09451 0.336659,0 0.617368,0.16874 0.841809,0.5054 0.224438,0.28055 0.392658,0.64511 0.504878,1.09399 0.11222,0.39277 0.168466,0.81357 0.168466,1.26245 0.05611,0.44888 0.08423,0.81344 0.08423,1.09399 0,2.13219 -0.448926,4.2086 -1.346689,6.22857 -0.59568,1.30305 -0.992174,2.08259 -1.785514,3.31149 0.505677,0.97318 1.191463,0.92573 1.877785,0.87526 0.795427,-1.29583 1.28516,-2.12344 1.92776296,-3.59764 0.95387,-2.1883 1.4309186,-4.48918 1.4309186,-6.90191 0,-0.5611 -0.05625,-1.17824 -0.168465,-1.85157 -0.112218,-0.67332 -0.3085596,-1.31858 -0.5891106,-1.93579 -0.224441,-0.61721 -0.588999,-1.12187 -1.093989,-1.51464 -0.50499196,-0.44888 -1.12265396,-0.67334 -1.85208396,-0.67334 z m -66.7638763,0.25218 c -1.00998,0 -2.13179,0.44893 -3.36621,1.34668 -0.33666,0.22444 -1.01005,0.86971 -2.02003,1.9358 -0.75413,0.84286 -1.66682,1.84431 -2.6665,2.93264 -0.56773,1.54554 0.48431,1.88615 1.34152,1.74977 0.96155,-1.07552 1.91949,-2.28659 2.67167,-3.08302 0.95387,-1.00998 1.59914,-1.62713 1.9358,-1.85157 0.84165,-0.61721 1.54264,-0.92604 2.10375,-0.92604 0.39277,0 0.64535,0.1401 0.75757,0.42065 0.11222,0.28055 0.16847,0.6175 0.16847,1.01027 0,0.89776 -0.28071,2.16018 -0.84181,3.78737 -0.50499,1.62719 -1.15026,3.39477 -1.9358,5.30252 -0.78554,1.90774 -1.65527,3.84354 -2.60914,5.80738 -0.89776,1.90774 -1.7675,3.61908 -2.60915,5.13406 -0.28055,0.5611 -0.42064,0.9819 -0.42064,1.26245 0,0.72943 0.36456,1.09399 1.09399,1.09399 0.11222,0 0.28044,-0.0562 0.50488,-0.16846 0.22444,-0.0561 0.4489,-0.25245 0.67334,-0.58912 0.33666,-0.56109 0.81371,-1.37459 1.43092,-2.44067 0.61721,-1.12221 1.31872,-2.32838 2.10426,-3.6189 0.84165,-1.34663 1.73951,-2.74966 2.69338,-4.20852 0.95387,-1.45886 1.93558,-2.83325 2.94556,-4.12378 1.85163,-2.30051 3.78744,-4.29256 5.807399,-5.97586 2.07607,-1.6833 4.096229,-2.52492 6.060088,-2.52492 0.448879,0 0.785318,0.0838 1.009756,0.25219 0.280551,0.11222 0.421164,0.47729 0.421164,1.0945 0,0.50499 -0.112491,1.15026 -0.336931,1.9358 -0.224441,0.72943 -0.505148,1.54292 -0.841809,2.44068 -0.336659,0.84165 -0.70122,1.71138 -1.093989,2.60914 -0.392771,0.89777 -0.78545,1.73937 -1.17822,2.52491 -0.953869,1.96385 -1.795479,3.81529 -2.524909,5.55469 -0.67332,1.73942 -1.01028,3.22629 -1.01028,4.46071 0,0.72944 0.22447,1.43095 0.67335,2.10427 0.50499,0.6172 1.29087,0.92604 2.35696,0.92604 1.009979,0 2.159899,-0.39268 3.450431,-1.17822 1.290532,-0.84165 2.609196,-1.88012 3.95583,-3.11454 1.346642,-1.23443 2.693424,-2.58069 4.040066,-4.03954 0.351785,-0.37993 0.650989,-0.70708 0.992188,-1.07642 -0.169675,0.91747 -0.258385,1.78265 -0.258385,2.59105 0,1.85163 0.505175,3.50724 1.515155,4.9661 0.953871,1.40275 2.580844,2.10375 4.881356,2.10375 2.637166,0 5.639046,-1.1218 9.00565,-3.3662 2.533716,-1.66146 5.098378,-3.832 7.693588,-6.50812 -0.160327,0.9185 -0.242363,1.79819 -0.242363,2.63652 0,0.84165 0.11249,1.68326 0.336931,2.52491 0.22444,0.84165 0.588999,1.59889 1.093991,2.27221 0.448879,0.67332 1.037902,1.23474 1.767332,1.68362 0.729432,0.39278 1.599163,0.58911 2.609143,0.58911 1.963854,0 3.787683,-0.58953 5.4709863,-1.76785 1.154898,-0.80843 1.709742,-1.08706 2.732457,-2.08029 -0.107682,-1.02445 -0.805047,-1.33715 -1.652325,-1.37553 -0.678085,0.61459 -1.1132713,0.90543 -1.9219413,1.52002 -1.402752,1.06609 -2.945874,1.59939 -4.629177,1.59939 -1.290529,0 -2.244629,-0.50518 -2.861839,-1.51516 -0.561102,-1.00997 -0.841293,-2.1599 -0.841293,-3.45043 0,-1.23441 0.224465,-2.60931 0.673344,-4.12429 0.448881,-1.57108 1.094147,-3.1142 1.9358,-4.62917 0.84165,-1.51497 1.851477,-2.97373 3.029788,-4.37648 1.234422,-1.45886 2.63693,-2.69315 4.2080133,-3.70313 0.336659,-0.22444 0.505394,-0.53327 0.505394,-0.92604 0,-0.28055 -0.11249,-0.50502 -0.336931,-0.67335 -0.224441,-0.22444 -0.477025,-0.33641 -0.757576,-0.33641 -0.1122213,0 -0.2804373,0.0557 -0.5048783,0.16795 -1.795521,1.17831 -3.366767,2.55321 -4.713407,4.12429 -1.346641,1.57109 -2.496566,3.19806 -3.450436,4.88136 -0.432538,0.81101 -0.811641,1.62243 -1.139981,2.43344 -0.02999,0.0284 -0.05817,0.0586 -0.0832,0.092 -3.759372,4.32047 -7.238299,7.43432 -10.436572,9.34206 -3.142162,1.90774 -5.695111,2.86184 -7.658962,2.86184 -1.458862,0 -2.524935,-0.42081 -3.198254,-1.26246 -0.617212,-0.89776 -0.925526,-2.07632 -0.925526,-3.53518 0,-1.45886 0.252069,-3.08583 0.75706,-4.88135 5.218234,-1.1222 9.089843,-2.69344 11.614793,-4.71341 2.581063,-2.07607 3.8716,-4.09624 3.8716,-6.06009 0,-1.17831 -0.392684,-2.10377 -1.178224,-2.77709 -0.78554,-0.67332 -1.823489,-1.01028 -3.114021,-1.01028 -1.851631,0 -3.619217,0.6734 -5.30252,2.02004 -1.683295,1.34664 -3.198299,3.00173 -4.544941,4.96558 -1.075772,1.63705 -1.953236,3.37338 -2.639115,5.20537 -1.192919,1.35106 -2.436601,2.70192 -3.733623,4.05298 -1.290532,1.40276 -2.552943,2.69328 -3.787365,3.87159 -1.234421,1.12221 -2.384861,2.04818 -3.450952,2.77761 -1.066091,0.72943 -1.96343,1.09399 -2.692849,1.09399 -0.67333,0 -1.01028,-0.36456 -1.01028,-1.09399 0,-0.50499 0.0844,-1.09452 0.2527,-1.76785 0.22444,-0.72943 0.50463,-1.48667 0.841289,-2.27221 0.33666,-0.84166 0.70173,-1.68326 1.094503,-2.5249 0.392772,-0.84166 0.785453,-1.65514 1.178224,-2.44068 0.280548,-0.5611 0.616987,-1.29074 1.009756,-2.1885 0.448882,-0.89776 0.841563,-1.85134 1.178224,-2.86132 0.392771,-1.00998 0.729723,-2.02033 1.010274,-3.03031 0.280549,-1.00998 0.420646,-1.90783 0.420646,-2.69337 0,-0.95387 -0.336442,-1.683 -1.009756,-2.18798 -0.673323,-0.5611 -1.51493,-0.84181 -2.524911,-0.84181 -2.581059,0 -5.106399,1.03795 -7.575238,3.11402 -2.46885,2.01996 -4.85306,4.57291 -7.15358,7.65896 0.44888,-1.1222 0.89781,-2.41273 1.34669,-3.8716 0.44888,-1.51497 0.67283,-2.66489 0.67283,-3.45043 0,-0.84165 -0.28019,-1.65514 -0.84129,-2.44068 -0.50499,-0.78554 -1.26275,-1.17874 -2.27273,-1.17874 z m 39.534013,2.18849 c 0.392771,0 0.841698,0.11198 1.346687,0.33642 0.561102,0.22444 0.841809,0.64524 0.841809,1.26245 2e-6,0.61721 -0.252585,1.2906 -0.757577,2.02003 -0.448878,0.72943 -1.178515,1.48719 -2.188495,2.27273 -1.009981,0.78555 -2.300518,1.54279 -3.871598,2.27222 -1.571082,0.72943 -3.45064,1.3747 -5.638932,1.9358 0.392769,-0.89777 0.953669,-1.93571 1.683102,-3.11403 0.729424,-1.17831 1.543431,-2.2725 2.441194,-3.28248 0.89776,-1.06609 1.851342,-1.93582 2.861323,-2.60915 1.066091,-0.72943 2.160286,-1.09399 3.282487,-1.09399 z"
       id="path862"
       inkscape:connector-curvature="0"
       sodipodi:nodetypes="scccscascccccccssscsccsscccccccccscccccscscsccsscccsssccsccccscscccscscccccccccscccscccscccsscccssccccscssscsccssccccsccscscccccscscsccscsccscccsccccscscsccscscsccccccsccsssccccccsscccccccscscccscssccccsccccs" />
    <path
       inkscape:connector-curvature="0"
       d="m -2.8966214,-198.54576 c -1.17831,0 -2.24438,0.44892 -3.19825,1.34668 -8e-5,7e-5 -1.5e-4,1.5e-4 -2.2e-4,2.2e-4 -0.89768,0.89772 -1.68296,1.99185 -2.35623,3.28227 -2e-5,5e-5 -5e-5,1e-4 -8e-5,1.5e-4 -0.61717,1.23438 -1.09419,2.55247 -1.43084,3.95516 -2e-5,1.2e-4 -5e-5,2.3e-4 -7e-5,3.4e-4 -0.2804996,1.40262 -0.4205796,2.60918 -0.4205796,3.61908 0,1.4e-4 0,2.8e-4 0,4.2e-4 8e-5,3.4225 1.0099096,5.89094 3.0297896,7.40585 0,0 5e-5,3e-5 1.5e-4,1e-4 0.0122,0.008 1.19328,0.77342 1.85142,1.01017 1.3e-4,5e-5 2.7e-4,1e-4 4.1e-4,1.5e-4 0.83345,0.29977 1.76722,0.50473 2.60873,0.50473 1.7e-4,0 3.4e-4,0 5.1e-4,0 2.07587999,-1.2e-4 4.0396392,-0.72976 5.8911192,-2.1885 1.6e-4,-1.2e-4 3.1e-4,-2.4e-4 4.7e-4,-3.5e-4 1.90757,-1.45879 3.73124,-3.17001 5.47052,-5.1337 7e-5,-7e-5 1.4e-4,-1.5e-4 2.2e-4,-2.2e-4 0.11457,-0.11465 0.18702,-0.25735 0.22353,-0.42404 6e-5,-6e-5 1.1e-4,-1.2e-4 1.6e-4,-1.8e-4 0.64245,-0.74512 1.3142502,-1.52899 2.0787902,-2.43688 3e-5,-4e-5 7e-5,-8e-5 1.1e-4,-1.3e-4 0.95383,-1.06604 1.87925,-2.10395 2.77698,-3.1139 4e-5,-4e-5 8e-5,-8e-5 1.2e-4,-1.3e-4 0.95382,-1.06603 1.82351,-1.99196 2.60902,-2.77747 1.4e-4,-1.4e-4 2.8e-4,-2.7e-4 4.1e-4,-4.1e-4 0.84145,-0.84143 1.48658,-1.43032 1.93539,-1.76693 1.4e-4,-1e-4 2.8e-4,-2e-4 4.1e-4,-3e-4 0.84147,-0.61701 1.54284,-0.92574 2.10385,-0.92574 1.3e-4,0 2.6e-4,0 3.8e-4,0 0.392571,9e-5 0.645021,0.14019 0.757201,0.42065 7e-5,1.8e-4 1.5e-4,3.7e-4 2.2e-4,5.5e-4 0.11207,0.28044 0.16825,0.61721 0.16825,1.00972 0,1.5e-4 0,2.9e-4 0,4.4e-4 -9e-5,0.89773 -0.2808,2.16001 -0.841811,3.78693 -4e-5,1.3e-4 -8e-5,2.7e-4 -1.2e-4,4e-4 -0.50498,1.62708 -1.1502,3.39453 -1.93568,5.30212 -6e-5,1.6e-4 -1.3e-4,3.1e-4 -1.9e-4,4.7e-4 -0.78549,1.90759 -1.65516,3.84323 -2.60896,5.80692 -7e-5,1.6e-4 -1.4e-4,3.1e-4 -2.2e-4,4.7e-4 -0.89768,1.90755 -1.76734,3.61874 -2.60892,5.13359 -9e-5,1.9e-4 -1.8e-4,3.7e-4 -2.7e-4,5.5e-4 -0.28037,0.56083 -0.42037,0.98145 -0.42037,1.2619 0,1.2e-4 0,2.4e-4 0,3.6e-4 1.1e-4,0.72919 0.36468,1.09363 1.09398,1.09363 1.5e-4,0 3e-4,0 4.4e-4,0 0.11222,-1.4e-4 0.2803,-0.0563 0.50445,-0.16846 1.4e-4,-3e-5 2.9e-4,-7e-5 4.3e-4,-1.1e-4 0.2243,-0.0563 0.44861,-0.25256 0.67291,-0.58901 1.1e-4,-1.8e-4 2.2e-4,-3.6e-4 3.3e-4,-5.4e-4 0.33664,-0.56108 0.81358,-1.37439 1.43059,-2.44013 10e-5,-1.8e-4 2e-4,-3.6e-4 3e-4,-5.4e-4 0.61713,-1.12206 1.31855,-2.32805 2.10396,-3.61836 7e-5,-1.1e-4 1.4e-4,-2.2e-4 2.1e-4,-3.3e-4 0.8416,-1.34654 1.73886,-2.74946 2.692651,-4.2082 8e-5,-1.2e-4 1.6e-4,-2.4e-4 2.3e-4,-3.5e-4 0.9538,-1.45873 1.93594,-2.833 2.94584,-4.12343 4e-5,-4e-5 8e-5,-9e-5 1.2e-4,-1.4e-4 1.8516,-2.30045 3.78736,-4.29245 5.80728,-5.97572 1.7e-4,-1.4e-4 3.3e-4,-2.7e-4 5e-4,-4.1e-4 2.0759,-1.68303 4.09539,-2.5245 6.05908,-2.52451 1.4e-4,0 2.9e-4,0 4.4e-4,0 0.44866,6e-5 0.78546,0.0838 1.00983,0.25219 1.8e-4,7e-5 3.6e-4,1.5e-4 5.4e-4,2.2e-4 0.2802,0.11248 0.42011,0.47747 0.42011,1.09428 0,1.7e-4 0,3.3e-4 0,4.9e-4 -8e-5,0.50492 -0.11205,1.15003 -0.33641,1.93531 -4e-5,1.2e-4 -8e-5,2.4e-4 -1.1e-4,3.6e-4 -0.22442,0.72933 -0.5051,1.54271 -0.8417,2.44032 -6e-5,1.4e-4 -1.1e-4,2.8e-4 -1.7e-4,4.1e-4 -0.33662,0.84152 -0.70112,1.71112 -1.09382,2.60873 -7e-5,1.5e-4 -1.3e-4,2.9e-4 -2e-4,4.4e-4 -0.3927,0.89761 -0.78533,1.73906 -1.17802,2.52447 -8e-5,1.6e-4 -1.6e-4,3.2e-4 -2.4e-4,4.8e-4 -0.95378,1.96367 -1.79531,3.81495 -2.52468,5.55422 -6e-5,1.4e-4 -1.1e-4,2.8e-4 -1.7e-4,4.3e-4 -0.67321,1.73923 -1.0101,3.22596 -1.0101,4.46028 0,1.2e-4 0,2.4e-4 0,3.6e-4 7e-5,0.72931 0.22453,1.4307 0.67334,2.10391 8e-5,1e-4 1.6e-4,2e-4 2.4e-4,3.1e-4 0.50501,0.61699 1.29029,0.92573 2.35621,0.92573 1.6e-4,0 3.3e-4,0 4.9e-4,0 1.00986,-1.2e-4 2.16014,-0.3928 3.45046,-1.17822 10e-5,-6e-5 2.1e-4,-1.3e-4 3.1e-4,-2e-4 1.29043,-0.84162 2.60899,-1.88002 3.95552,-3.11434 1.1e-4,-10e-5 2.2e-4,-2e-4 3.3e-4,-3e-4 1.34654,-1.23435 2.69321,-2.58051 4.03973,-4.03925 1.1e-4,-1.2e-4 2.3e-4,-2.4e-4 3.4e-4,-3.7e-4 1.40263,-1.51483 2.72066,-2.94586 3.95498,-4.29239 1.1e-4,-1.1e-4 2.2e-4,-2.2e-4 3.3e-4,-3.3e-4 0.16811,-0.16828 0.25237,-0.39264 0.25237,-0.67301 0,-1.2e-4 0,-2.4e-4 0,-3.5e-4 -1.1e-4,-0.7292 -0.33655,-1.09364 -1.00976,-1.09364 -1.9e-4,0 -3.7e-4,0 -5.5e-4,0 -0.28033,1.5e-4 -0.53274,0.11264 -0.75703,0.33693 -10e-5,1.2e-4 -2e-4,2.3e-4 -3e-4,3.4e-4 -1.23433,1.40263 -2.52477,2.80504 -3.87129,4.20767 -1.1e-4,1.2e-4 -2.1e-4,2.3e-4 -3.2e-4,3.4e-4 -1.29042,1.40262 -2.55272,2.69305 -3.78705,3.87126 -5e-5,5e-5 -10e-5,9e-5 -1.5e-4,1.4e-4 -1.23437,1.12214 -2.38477,2.04807 -3.4508,2.77746 -9e-5,6e-5 -1.8e-4,1.2e-4 -2.6e-4,1.8e-4 -1.06599,0.72932 -1.96375,1.09382 -2.69312,1.09382 -1.1e-4,0 -2.2e-4,0 -3.3e-4,0 -0.6731,-1.1e-4 -1.00943,-0.36467 -1.00943,-1.094 0,-8e-5 0,-1.6e-4 0,-2.4e-4 2e-5,-0.50493 0.0838,-1.09439 0.25219,-1.76761 1e-5,-6e-5 3e-5,-1.2e-4 5e-5,-1.8e-4 0.22443,-0.72936 0.50511,-1.48655 0.84175,-2.27203 2e-5,-7e-5 5e-5,-1.4e-4 8e-5,-2e-4 0.33665,-0.84159 0.70118,-1.68313 1.09392,-2.52471 3e-5,-7e-5 6e-5,-1.4e-4 9e-5,-2e-4 0.39274,-0.84158 0.78591,-1.65499 1.17864,-2.44048 4e-5,-9e-5 9e-5,-1.8e-4 1.3e-4,-2.7e-4 0.28054,-0.56107 0.61692,-1.2906 1.00963,-2.18822 3e-5,-7e-5 7e-5,-1.4e-4 1.1e-4,-2.2e-4 0.44883,-0.89769 0.84147,-1.85121 1.17812,-2.86111 3e-5,-8e-5 6e-5,-1.6e-4 9e-5,-2.4e-4 0.39272,-1.0099 0.72965,-2.02016 1.01018,-3.03006 4e-5,-1.6e-4 9e-5,-3.3e-4 1.3e-4,-4.9e-4 0.28046,-1.00978 0.42051,-1.90748 0.42051,-2.69289 0,-1.5e-4 0,-3.1e-4 0,-4.6e-4 -1.1e-4,-0.95365 -0.33654,-1.68261 -1.00975,-2.18752 -1.1e-4,-9e-5 -2.2e-4,-1.8e-4 -3.3e-4,-2.7e-4 -0.67327,-0.56092 -1.51529,-0.84154 -2.5251,-0.84154 -2.1e-4,0 -4.2e-4,0 -6.3e-4,0 -2.58084,1.7e-4 -5.10545,1.03812 -7.5741,3.11402 -10e-5,8e-5 -2e-4,1.6e-4 -3.1e-4,2.5e-4 -2.46873,2.01992 -4.85335,4.57279 -7.15378,7.65872 7e-5,-1.8e-4 1.5e-4,-3.6e-4 2.2e-4,-5.5e-4 0.44881,-1.12207 0.89766,-2.41243 1.34647,-3.87105 4e-5,-1.2e-4 7e-5,-2.5e-4 1.1e-4,-3.7e-4 0.44881,-1.51479 0.67324,-2.66459 0.67324,-3.45007 0,-1.4e-4 0,-2.7e-4 0,-4.1e-4 -9e-5,-0.8415 -0.28029,-1.65485 -0.8413,-2.44026 -8e-5,-1.3e-4 -1.6e-4,-2.6e-4 -2.5e-4,-3.8e-4 -0.50498,-0.78529 -1.26265,-1.17836 -2.272481,-1.17836 -1.6e-4,0 -3.3e-4,0 -4.9e-4,0 -1.00985,1.5e-4 -2.13201,0.44908 -3.36623,1.34668 -1.6e-4,1.3e-4 -3.3e-4,2.6e-4 -4.9e-4,3.8e-4 -0.50494,0.39279 -1.17816,1.00981 -2.01954,1.85119 -1.3e-4,1.4e-4 -2.7e-4,2.7e-4 -4.1e-4,4.1e-4 -0.84153,0.84155 -1.73873,1.79551 -2.69244,2.86143 -8e-5,8e-5 -1.6e-4,1.6e-4 -2.4e-4,2.5e-4 -0.95379,1.0099 -1.90781,2.0759 -2.8616102,3.19801 -7e-5,9e-5 -1.4e-4,1.8e-4 -2.2e-4,2.6e-4 -0.89767,1.06599 -1.71109,2.02 -2.44045,2.86158 -10e-5,1e-4 -2e-4,2e-4 -2.9e-4,2.9e-4 -0.14833,0.1484 -0.24302,0.30994 -0.29324,0.48288 -7e-5,9e-5 -1.5e-4,1.7e-4 -2.2e-4,2.5e-4 -3.6817,4.10621 -6.79332021,6.16527 -9.3314992,6.16527 -1.9e-4,-2e-5 -3.7e-4,-3e-5 -5.5e-4,-5e-5 -1.11095,-0.10467 -2.3798,-0.36752 -3.28194,-1.09394 -1.4e-4,-1.2e-4 -2.8e-4,-2.3e-4 -4.2e-4,-3.5e-4 -0.84639,-0.72206 -1.57064,-1.59914 -1.85115,-2.77726 -4e-5,-1.9e-4 -7e-5,-3.8e-4 -1.1e-4,-5.7e-4 -0.22437,-1.17806 -0.3363,-2.15958 -0.3363,-2.94499 0,-1.4e-4 0,-2.7e-4 0,-4.1e-4 3e-5,-0.84156 0.11201,-1.82364 0.33641,-2.94566 5e-5,-1.9e-4 9e-5,-3.8e-4 1.4e-4,-5.7e-4 0.28053,-1.1781 0.64504,-2.29971 1.09385,-3.36564 8e-5,-1.7e-4 1.6e-4,-3.5e-4 2.5e-4,-5.2e-4 0.50492,-1.06585 1.06626,-1.96354 1.68337,-2.69285 1.1e-4,-1.2e-4 2.2e-4,-2.4e-4 3.3e-4,-3.6e-4 0.67323,-0.72919 1.40224,-1.09415 2.18765,-1.09415 2.2e-4,0 4.4e-4,0 6.6e-4,0 0.33636,2.2e-4 0.61685,0.16896 0.84115,0.5054 7e-5,9e-5 1.4e-4,1.8e-4 2.2e-4,2.7e-4 0.22433,0.28052 0.39247,0.64499 0.50466,1.09372 3e-5,1.3e-4 7e-5,2.6e-4 1.1e-4,3.8e-4 0.11214,0.39266 0.16835,0.81334 0.16835,1.26207 2e-5,1.5e-4 4e-5,2.9e-4 6e-5,4.4e-4 0.0561,0.44868 0.0842,0.81309 0.0842,1.09355 0,1.7e-4 0,3.5e-4 0,5.2e-4 -8e-5,2.13201 -0.449,4.20825 -1.34669,6.22805 -5e-5,1.1e-4 -1e-4,2.1e-4 -1.5e-4,3.2e-4 -0.5956,1.30286 -0.99209,2.08237 -1.78537,3.31117 9e-5,1.6e-4 1.7e-4,3.2e-4 2.5e-4,4.8e-4 0.50565,0.97269 1.19133,0.92524 1.87754,0.87478 6e-5,-10e-5 1.3e-4,-2.1e-4 1.9e-4,-3.1e-4 0.79532,-1.29565 1.28502,-2.12325 1.92756999,-3.59733 8e-5,-1.8e-4 1.6e-4,-3.5e-4 2.3e-4,-5.3e-4 0.953719,-2.18814 1.4306892,-4.48884 1.4306892,-6.90138 0,-1.8e-4 0,-3.7e-4 0,-5.5e-4 -4e-5,-0.56095 -0.0563,-1.17791 -0.16847,-1.85102 -3e-5,-2.2e-4 -7e-5,-4.4e-4 -1.1e-4,-6.6e-4 -0.11223,-0.67308 -0.3085402,-1.31812 -0.5890002,-1.93513 -7e-5,-2e-4 -1.4e-4,-4e-4 -2.2e-4,-6e-4 -0.22446,-0.61694 -0.58894,-1.1214 -1.09375899,-1.51404 -1.7e-4,-1.5e-4 -3.3e-4,-2.9e-4 -5e-4,-4.4e-4 -0.5049,-0.44859 -1.1224,-0.6729 -1.85159,-0.6729 0,0 0,0 0,0 m -44.5092496,0.16812 c -1.7e-4,0 -3.3e-4,0 -5e-4,0 m -22.254639,0.0841 c -0.33682,0 -0.71092,0.14964 -1.12256,0.44889 -0.67306,3e-4 -1.42061,0.29958 -2.24315,0.89779 -0.11233,0.0749 -0.33691,0.29005 -0.67368,0.64549 -0.22455,0.14982 -0.67336,0.57993 -1.34634,1.29031 -0.2515,0.28109 -0.55586,0.61504 -0.8892,0.97796 -0.50269,0.56182 -1.11101,1.2293 -1.7773,1.95468 -0.18929,0.51531 0.16134,0.62897 0.44703,0.58363 -0.37818,1.03004 0.32308,1.25705 0.89449,1.16614 0.32059,-0.35859 0.63998,-0.76237 0.89079,-1.02794 0.64094,-0.71694 1.27947,-1.52419 1.78087,-2.05508 0.31803,-0.33674 0.5332,-0.54254 0.6455,-0.61744 0.63578,-0.67317 1.06588,-1.08452 1.2903,-1.23413 0.28068,-0.20584 0.51448,-0.30888 0.70166,-0.30898 0.56091,-0.41127 1.0281,-0.61706 1.40209,-0.61706 0.13105,0 0.21537,0.0467 0.2529,0.14022 0.26163,9e-5 0.42989,0.0935 0.50467,0.28043 0.0375,0.0937 0.0563,0.2062 0.0564,0.3373 0.0747,0.18693 0.1121,0.41138 0.1121,0.67297 0,0.2994 -0.0936,0.72035 -0.28061,1.2629 -9e-5,0.59847 -0.18723,1.43994 -0.5612,2.52447 -0.16837,0.54253 -0.38351,1.13186 -0.64539,1.76791 -0.33665,1.08468 -0.76678,2.26293 -1.29041,3.53461 -0.26191,0.63607 -0.55189,1.28149 -0.86991,1.93626 -0.52364,1.27168 -1.1034,2.56206 -1.73923,3.87113 -0.29933,0.63607 -0.58932,1.20667 -0.86993,1.71182 -0.59843,1.27164 -1.17818,2.41238 -1.73921,3.42224 -0.0936,0.18722 -0.1404,0.32767 -0.14049,0.42137 -0.18685,0.37379 -0.28015,0.65414 -0.28015,0.84108 0,0.24327 0.12152,0.3649 0.36466,0.36502 1.2e-4,0.48605 0.24316,0.72897 0.72933,0.72897 0.0375,0 0.0938,-0.0187 0.16873,-0.0562 0.0748,-1.4e-4 0.18681,-0.0376 0.33615,-0.1123 0.075,-0.0187 0.14992,-0.0842 0.22488,-0.19649 0.14948,-0.0375 0.29898,-0.16841 0.44845,-0.39263 0.11233,-0.18722 0.27145,-0.45857 0.4773,-0.81411 0.22442,-0.37404 0.54234,-0.91619 0.95362,-1.62656 0.20583,-0.37426 0.43977,-0.7765 0.70172,-1.20685 0.4114,-0.74799 0.87897,-1.55192 1.40254,-2.41206 0.28062,-0.44898 0.57997,-0.91677 0.898,-1.40317 0.56104,-0.89766 1.15954,-1.8329 1.79538,-2.80536 0.31803,-0.4864 0.64535,-0.94465 0.98208,-1.37494 0.63584,-0.97245 1.29024,-1.88859 1.96348,-2.74884 0.61728,-0.76693 1.26263,-1.43104 1.93602,-1.99223 1.23435,-1.53356 2.52482,-2.86149 3.871385,-3.98363 0.69219,-0.56123 1.36575,-0.84191 2.020544,-0.84205 1.38387,-1.12192 2.73048,-1.68287 4.03955,-1.68287 0.14978,0 0.26207,0.0279 0.33703,0.0841 0.29903,6e-5 0.52318,0.0559 0.67273,0.16813 0.0937,0.0375 0.14075,0.15924 0.14094,0.36505 0.18667,0.0751 0.28022,0.31838 0.28022,0.72945 0,0.1685 -0.0375,0.38375 -0.11231,0.64576 -7e-5,0.33659 -0.0751,0.7666 -0.22462,1.29004 -0.0748,0.24326 -0.16845,0.51455 -0.28071,0.81392 -0.14961,0.48619 -0.33671,1.0284 -0.5611,1.62676 -0.11227,0.28069 -0.23385,0.57074 -0.36482,0.87013 -0.2244,0.56097 -0.46738,1.14065 -0.72916,1.73901 -0.13099,0.2994 -0.26195,0.58008 -0.39294,0.84208 -0.26178,0.59835 -0.52351,1.15927 -0.78529,1.68283 -0.31803,0.65478 -0.59865,1.27208 -0.84187,1.85205 -0.63582,1.30905 -1.19681,2.54319 -1.683044,3.70265 -0.22449,0.57995 -0.33687,1.07571 -0.33692,1.48733 -0.44877,1.15943 -0.67336,2.15054 -0.67336,2.97338 0,0.24327 0.0748,0.47722 0.22445,0.70178 8e-5,0.48617 0.14972,0.95372 0.4489,1.40249 0.16841,0.20584 0.43045,0.30888 0.785904,0.30899 0.33667,0.41126 0.86051,0.61705 1.57106,0.61705 0.33683,0 0.7203,-0.13089 1.15064,-0.39274 0.6732,-1.2e-4 1.43965,-0.26191 2.2998,-0.78548 0.43028,-0.28061 0.86994,-0.62684 1.31892,-1.03838 0.86026,-0.56107 1.73926,-1.25331 2.63691,-2.07616 0.44899,-0.41158 0.89802,-0.86043 1.34701,-1.34682 0.89766,-0.82287 1.7954,-1.72027 2.69305,-2.69273 0.11738,-0.12677 0.21723,-0.23594 0.33108,-0.35918 0.23437,-0.25312 0.43376,-0.47113 0.66111,-0.71724 -0.0566,0.30597 -0.0862,0.59452 -0.0862,0.86414 -0.11306,0.61148 -0.17217,1.18812 -0.17217,1.72692 0,0.61736 0.16839,1.16938 0.50505,1.65582 8e-5,1.23424 0.33687,2.33783 1.0101,3.31028 0.31804,0.4677 0.86044,0.70148 1.62735,0.7016 0.63595,0.93493 1.72052,1.40215 3.25401,1.40215 0.87927,0 1.88011,-0.37393 3.00253,-1.12206 1.75795,-1.9e-4 3.75899,-0.74805 6.00312,-2.24414 0.84467,-0.55389 1.69966,-1.27747 2.56484,-2.16958 1.68904,-1.10761 3.39871,-2.55457 5.12875,-4.33855 -0.0535,0.30632 -0.0808,0.5997 -0.0809,0.87929 -0.10684,0.61217 -0.1615,1.19849 -0.1615,1.75724 0,0.28069 0.0375,0.56136 0.11231,0.84205 4e-5,0.56096 0.075,1.1219 0.22462,1.68286 0.0748,0.28069 0.19641,0.53324 0.36477,0.75782 0.14964,0.56093 0.39264,1.06562 0.72922,1.51439 0.1497,0.22455 0.34612,0.4118 0.58933,0.56154 0.29923,0.44873 0.69184,0.8229 1.178,1.12208 0.24327,0.13099 0.5333,0.1965 0.87007,0.19657 0.48622,0.26172 1.06592,0.39254 1.73908,0.39254 0.65477,0 1.26288,-0.19651 1.82414,-0.58928 1.30905,-1e-4 2.52478,-0.39312 3.64684,-1.17857 0.3850596,-0.26954 0.5701096,-0.36248 0.9110996,-0.69362 0.76974,-0.5388 1.13963,-0.72459 1.82136,-1.38667 -0.0359,-0.34165 -0.26838,-0.44605 -0.55083,-0.45901 -0.072,-0.68257 -0.53678,-0.89094 -1.10149,-0.91652 -0.22614,0.20497 -0.37132,0.30201 -0.64098,0.50698 -0.4518696,0.40952 -0.7419796,0.60342 -1.2809696,1.01304 -0.46769,0.35545 -0.98218,0.53331 -1.5434,0.53339 -0.93507,0.71056 -1.96371,1.066 -3.08577,1.066 -0.43039,0 -0.74863,-0.16839 -0.95458,-0.50505 -0.86003,-1.6e-4 -1.49589,-0.33695 -1.90726,-1.01011 -0.18713,-0.33682 -0.28062,-0.72029 -0.28071,-1.15063 -0.37388,-0.6732 -0.56058,-1.43965 -0.56058,-2.2998 0,-0.41167 0.0748,-0.87017 0.22444,-1.37537 8e-5,-0.82279 0.14972,-1.73919 0.4489,-2.74893 0.14966,-0.52382 0.36479,-1.03832 0.64538,-1.54344 0.29924,-1.04725 0.72939,-2.07587 1.29042,-3.08573 0.28062,-0.50511 0.6173,-0.99149 1.01013,-1.4592 0.56106,-1.00984 1.23421,-1.98223 2.01966,-2.91728 0.41157,-0.4864 0.87917,-0.89795 1.40297,-1.23473 0.82287,-0.97242 1.75778,-1.79516 2.8050396,-2.4684 0.11233,-0.0749 0.16868,-0.1779 0.16879,-0.3089 0.22422,-0.14961 0.3366,-0.35542 0.3366,-0.61714 0,-0.0937 -0.0375,-0.1687 -0.11231,-0.225 -1.4e-4,-0.18677 -0.0751,-0.33624 -0.22462,-0.44835 -0.075,-0.075 -0.1593,-0.11243 -0.25296,-0.11257 -0.14952,-0.14934 -0.31776,-0.22384 -0.50461,-0.22384 -0.0376,0 -0.0938,0.0186 -0.1687296,0.056 -0.0748,1.5e-4 -0.18682,0.0373 -0.33615,0.11197 -0.59865,0.39286 -1.12255,0.85126 -1.57157,1.37505 -1.19684,0.78548 -2.24419,1.70198 -3.14184,2.74924 -0.44899,0.52382 -0.83241,1.06627 -1.15047,1.6275 -0.89762,1.04728 -1.66413,2.1318 -2.29996,3.25386 -0.14425,0.27047 -0.27069,0.54107 -0.38021,0.81154 -0.28827,0.54054 -0.54093,1.08136 -0.75977,1.6219 -0.0102,0.01 -0.0197,0.0198 -0.0282,0.0311 -0.0198,0.0188 -0.0384,0.0388 -0.055,0.0609 -1.25321,1.44024 -2.41292,2.47828 -3.47909,3.11429 -2.50616,2.88017 -4.82537,4.95599 -6.95749,6.22778 -1.04751,0.63599 -1.89862,0.9541 -2.55337,0.95418 -2.0946,1.27167 -3.79643,1.90766 -5.10559,1.90766 -0.4864,0 -0.84188,-0.14027 -1.06644,-0.42082 -0.97239,-7e-5 -1.68299,-0.28061 -2.13181,-0.84164 -0.20584,-0.2994 -0.30871,-0.6924 -0.30881,-1.17883 -0.41128,-0.59845 -0.61672,-1.38402 -0.61672,-2.35635 0,-0.48641 0.084,-1.02885 0.25235,-1.62748 1.5e-4,-0.9725 0.1683,-2.05706 0.50503,-3.25395 1.73925,-0.37406 3.02968,-0.89779 3.87128,-1.57107 3.47887,-0.74817 6.06,-1.79571 7.74335,-3.1424 0.86025,-0.69198 1.29038,-1.36533 1.29038,-2.0199 1.72071,-1.38405 2.58106,-2.73083 2.58106,-4.04006 0,-0.39296 -0.13089,-0.70164 -0.39274,-0.92627 -1.3e-4,-0.78527 -0.26191,-1.40205 -0.78548,-1.85082 -0.26197,-0.22455 -0.60809,-0.33698 -1.03839,-0.33709 -0.52365,-0.44866 -1.21549,-0.67319 -2.07563,-0.67319 -0.61736,0 -1.20671,0.22446 -1.76796,0.67334 -1.23432,1.7e-4 -2.41263,0.44916 -3.53477,1.34686 -0.56101,0.44885 -1.06595,1.00049 -1.51477,1.65503 -1.12224,0.89783 -2.13229,2.00129 -3.03009,3.31059 -0.35853,0.54562 -0.65098,1.12433 -0.87958,1.73492 -0.71718,1.09137 -1.30215,2.24892 -1.75941,3.47025 -0.39773,0.45046 -0.81239,0.90086 -1.24483,1.35132 -0.79519,0.9006 -1.62421,1.80106 -2.48879,2.70166 -0.43028,0.4677 -0.85119,0.89799 -1.26277,1.29087 -0.86024,0.93505 -1.70175,1.79528 -2.52459,2.58073 -0.41158,0.37416 -0.79516,0.68291 -1.15062,0.92614 -0.82284,0.74802 -1.5897,1.36524 -2.30034,1.85147 -0.35553,0.24326 -0.65482,0.3649 -0.89814,0.36502 -0.7106,0.48605 -1.30876,0.72897 -1.79504,0.72897 -0.22423,-1.2e-4 -0.33643,-0.12164 -0.33643,-0.36466 -0.44888,0 -0.67352,-0.24304 -0.67352,-0.72933 0,-0.16849 0.0281,-0.36517 0.0842,-0.58978 7e-5,-0.33661 0.0563,-0.72952 0.16852,-1.17825 0.0748,-0.24309 0.16818,-0.49544 0.28038,-0.75722 0.14965,-0.48636 0.33647,-0.99125 0.56094,-1.51502 0.11219,-0.28048 0.23386,-0.56095 0.36475,-0.84143 0.22447,-0.56117 0.46789,-1.12231 0.72977,-1.68348 0.13089,-0.28048 0.26175,-0.55157 0.39264,-0.81335 0.2619,-0.5612 0.52373,-1.10361 0.78562,-1.6274 0.0935,-0.18699 0.20559,-0.43011 0.33645,-0.72922 0.18707,-0.37414 0.4114,-0.86064 0.67328,-1.45922 0.14958,-0.29919 0.28044,-0.61698 0.39263,-0.95355 0.29929,-0.59859 0.56111,-1.2344 0.78558,-1.9078 0.13088,-0.33658 0.24317,-0.67328 0.33666,-1.00986 0.26185,-0.67332 0.48649,-1.34688 0.67352,-2.0202 0.0936,-0.33683 0.14031,-0.63627 0.14035,-0.89828 0.18694,-0.67312 0.2803,-1.27153 0.2803,-1.79509 0,-0.31811 -0.11215,-0.56131 -0.33659,-0.72979 -1.6e-4,-0.63573 -0.22451,-1.12171 -0.67333,-1.45833 -0.22442,-0.18694 -0.5049,-0.28047 -0.84148,-0.28047 -0.44898,-0.37406 -1.01016,-0.5612 -1.68359,-0.5612 -0.86024,8e-5 -1.70192,0.34607 -2.52476,1.038 -1.72076,5e-5 -3.404374,0.69205 -5.050319,2.07614 -0.8229,0.6733 -1.61759,1.52424 -2.38438,2.55286 -1.64586,1.34655 -3.2353,3.04843 -4.76894,5.1057 0.14959,-0.374 0.29919,-0.80408 0.44878,-1.29026 0.29927,-0.74819 0.59858,-1.60861 0.89785,-2.58125 0.14959,-0.5049 0.22422,-0.88814 0.22422,-1.14996 0.29926,-1.01004 0.44856,-1.77673 0.44856,-2.30049 -5e-5,-0.28047 -0.0934,-0.55157 -0.28043,-0.81335 -4e-5,-0.56117 -0.18688,-1.10356 -0.56099,-1.62731 -0.16833,-0.26172 -0.42087,-0.39273 -0.75745,-0.39273 -0.33666,-0.52369 -0.84183,-0.78583 -1.51515,-0.78583 0,0 0,0 0,0 m 13.178009,0.72949 m 26.35601,1.459 c 0.26192,0 0.56126,0.0747 0.89799,0.22428 0.13088,3e-5 0.28045,0.0374 0.4487,0.11214 0.37416,0.14966 0.56139,0.43023 0.56148,0.84174 0.18685,0.0748 0.28033,0.21507 0.28033,0.42071 0,0.41157 -0.16839,0.8606 -0.50505,1.34699 -8e-5,0.20565 -0.0843,0.43001 -0.25253,0.67304 -0.29929,0.48634 -0.78575,0.99158 -1.4591,1.51533 -0.14964,0.24309 -0.39281,0.49562 -0.72939,0.7574 -0.6734,0.52376 -1.53384,1.02865 -2.58131,1.515 -0.33663,0.26179 -0.76672,0.51413 -1.29029,0.75722 -1.04745,0.48632 -2.30055,0.91652 -3.75948,1.29062 -0.52365,0.24311 -1.15011,0.45817 -1.87945,0.64518 0.26188,-0.59859 0.63584,-1.29062 1.12216,-2.07624 0.13092,-0.29921 0.31786,-0.64511 0.56094,-1.03779 0.48631,-0.78559 1.02901,-1.5151 1.62755,-2.18847 0.24319,-0.3928 0.51457,-0.75757 0.81386,-1.09427 0.59845,-0.71061 1.23409,-1.29034 1.90733,-1.73918 0.29943,-0.35548 0.61746,-0.64551 0.9543,-0.87007 0.71056,-0.48605 1.43985,-0.72897 2.1878,-0.72897 0.35537,-0.24314 0.7201,-0.36466 1.09416,-0.36466 0,0 0,0 0,0"
       style="font-style:normal;font-variant:normal;font-weight:normal;font-stretch:normal;font-size:84.16508484px;line-height:1.25;font-family:'Learning Curve';-inkscape-font-specification:'Learning Curve, Normal';font-variant-ligatures:normal;font-variant-caps:normal;font-variant-numeric:normal;font-feature-settings:normal;text-align:start;letter-spacing:0px;word-spacing:0px;writing-mode:lr-tb;text-anchor:start;opacity:1;fill:#8ebaff;fill-opacity:1;stroke:#8ebaff;stroke-width:1.32291663;stroke-miterlimit:4;stroke-dasharray:none;stroke-opacity:1;filter:url(#filter1013)"
       id="path872" />
    <path
       inkscape:connector-curvature="0"
       d="m -2.8698187,-198.54576 c -1.17831,0 -2.24438,0.44892 -3.19825,1.34668 -1.5e-4,1.4e-4 -2.9e-4,2.9e-4 -4.4e-4,4.4e-4 -0.89758,0.89767 -1.68279,1.99173 -2.356,3.28205 -5e-5,1e-4 -10e-5,2e-4 -1.5e-4,3e-4 -0.61714,1.23433 -1.09414,2.55237 -1.43078,3.95501 -10e-6,6e-5 -2e-5,1.1e-4 -3e-5,1.7e-4 -0.2805303,1.40269 -0.4206103,2.60931 -0.4206103,3.61925 0,7e-5 0,1.4e-4 0,2.1e-4 4e-5,3.42261 1.0098703,5.89112 3.0297903,7.40606 0,0 2e-5,1e-5 7e-5,5e-5 0.006,0.004 1.19163,0.77285 1.85149,1.01022 7e-5,2e-5 1.4e-4,5e-5 2.1e-4,7e-5 0.8335,0.29981 1.76735,0.50481 2.60894,0.50481 8e-5,0 1.7e-4,0 2.5e-4,0 2.07598,-6e-5 4.0398206,-0.7297 5.8913806,-2.1885 7e-5,-6e-5 1.5e-4,-1.2e-4 2.3e-4,-1.8e-4 1.90766,-1.45882 3.73141,-3.1701 5.47075,-5.13387 1.5e-4,-1.5e-4 3e-4,-3e-4 4.5e-4,-4.5e-4 0.11444,-0.11461 0.18682,-0.25723 0.22331,-0.42381 10e-5,-1.2e-4 2.1e-4,-2.4e-4 3.1e-4,-3.6e-4 0.64241,-0.74507 1.3141601,-1.52889 2.0786301,-2.4367 8e-5,-9e-5 1.6e-4,-1.7e-4 2.3e-4,-2.6e-4 0.9538,-1.066 1.87918,-2.10386 2.77686,-3.11377 8e-5,-9e-5 1.6e-4,-1.7e-4 2.4e-4,-2.6e-4 0.95378,-1.06598 1.82343,-1.99187 2.60891,-2.77734 7e-5,-7e-5 1.3e-4,-1.4e-4 2e-4,-2.1e-4 0.84155,-0.84154 1.48675,-1.4305 1.9356,-1.76713 7e-5,-5e-5 1.3e-4,-1e-4 2e-4,-1.5e-4 0.84156,-0.61711 1.543,-0.92589 2.10406,-0.92589 6e-5,0 1.2e-4,0 1.9e-4,0 0.392669,4e-5 0.645189,0.14014 0.757389,0.42065 3e-5,9e-5 7e-5,1.8e-4 1.1e-4,2.7e-4 0.11214,0.2805 0.16836,0.61736 0.16836,1.01 0,7e-5 0,1.4e-4 0,2.2e-4 -5e-5,0.89774 -0.28076,2.16009 -0.841809,3.78715 -2e-5,6e-5 -4e-5,1.3e-4 -6e-5,2e-4 -0.505,1.62713 -1.15024,3.39465 -1.93574,5.30232 -4e-5,8e-5 -7e-5,1.5e-4 -10e-5,2.3e-4 -0.78551,1.90767 -1.65521,3.84339 -2.60905,5.80716 -4e-5,8e-5 -7e-5,1.5e-4 -1.1e-4,2.3e-4 -0.89772,1.90765 -1.76742,3.61891 -2.60903,5.13383 -5e-5,9e-5 -9e-5,1.8e-4 -1.4e-4,2.7e-4 -0.28046,0.56097 -0.42051,0.98167 -0.42051,1.26218 0,6e-5 0,1.2e-4 0,1.8e-4 6e-5,0.72931 0.36462,1.09381 1.09399,1.09381 7e-5,0 1.5e-4,0 2.2e-4,0 0.11222,-7e-5 0.28037,-0.0563 0.50466,-0.16846 7e-5,-2e-5 1.5e-4,-4e-5 2.2e-4,-6e-5 0.22437,-0.0562 0.44876,-0.2525 0.67312,-0.58906 6e-5,-9e-5 1.1e-4,-1.8e-4 1.7e-4,-2.7e-4 0.33665,-0.56109 0.81364,-1.37449 1.43075,-2.4404 5e-5,-9e-5 10e-5,-1.8e-4 1.5e-4,-2.7e-4 0.61717,-1.12214 1.31864,-2.32822 2.10412,-3.61863 3e-5,-6e-5 7e-5,-1.1e-4 10e-5,-1.7e-4 0.84163,-1.34659 1.73893,-2.74956 2.692759,-4.20836 4e-5,-6e-5 7e-5,-1.2e-4 1.1e-4,-1.8e-4 0.95384,-1.45879 1.93602,-2.83312 2.94596,-4.1236 7e-5,-9e-5 1.5e-4,-1.9e-4 2.2e-4,-2.8e-4 1.85157,-2.30039 3.78729,-4.29235 5.80717,-5.97558 9e-5,-7e-5 1.7e-4,-1.4e-4 2.6e-4,-2.1e-4 2.07598,-1.68316 4.09555,-2.5247 6.05932,-2.52471 8e-5,0 1.5e-4,0 2.2e-4,0 0.44877,3e-5 0.78565,0.0838 1.01005,0.25219 9e-5,3e-5 1.9e-4,7e-5 2.8e-4,1.1e-4 0.28037,0.11235 0.42037,0.47738 0.42037,1.09439 0,8e-5 0,1.6e-4 0,2.4e-4 -3e-5,0.50496 -0.112,1.15015 -0.33641,1.93556 -2e-5,6e-5 -3e-5,1.2e-4 -5e-5,1.8e-4 -0.22443,0.72938 -0.50512,1.54281 -0.84176,2.4405 -2e-5,7e-5 -5e-5,1.4e-4 -8e-5,2e-4 -0.33665,0.84159 -0.70117,1.71125 -1.09391,2.60894 -3e-5,7e-5 -6e-5,1.5e-4 -9e-5,2.2e-4 -0.39274,0.89769 -0.7854,1.73921 -1.17813,2.52469 -4e-5,8e-5 -8e-5,1.6e-4 -1.1e-4,2.4e-4 -0.95384,1.96376 -1.79541,3.81512 -2.52481,5.55446 -3e-5,7e-5 -5e-5,1.4e-4 -8e-5,2.1e-4 -0.67327,1.73933 -1.01019,3.22613 -1.01019,4.4605 0,6e-5 0,1.2e-4 0,1.8e-4 4e-5,0.72937 0.2245,1.43082 0.67334,2.10409 4e-5,5e-5 8e-5,1e-4 1.3e-4,1.5e-4 0.505,0.6171 1.29032,0.92589 2.35632,0.92589 8e-5,0 1.7e-4,0 2.5e-4,0 1.00992,-6e-5 2.16028,-0.39274 3.4507,-1.17822 5e-5,-4e-5 1.1e-4,-7e-5 1.6e-4,-1e-4 1.29048,-0.84164 2.60909,-1.88007 3.95567,-3.11444 6e-5,-5e-5 1.1e-4,-10e-5 1.7e-4,-1.5e-4 1.34659,-1.23439 2.69332,-2.5806 4.03989,-4.0394 6e-5,-6e-5 1.2e-4,-1.2e-4 1.7e-4,-1.9e-4 1.4027,-1.5149 2.72078,-2.94599 3.95515,-4.29257 6e-5,-6e-5 1.1e-4,-1.1e-4 1.7e-4,-1.7e-4 0.16822,-0.1683 0.25253,-0.39271 0.25253,-0.67317 0,-6e-5 0,-1.2e-4 0,-1.8e-4 -5e-5,-0.72931 -0.33649,-1.09381 -1.00976,-1.09381 -9e-5,0 -1.8e-4,0 -2.7e-4,0 -0.28044,7e-5 -0.53294,0.11256 -0.75731,0.33693 -5e-5,6e-5 -1e-4,1.1e-4 -1.5e-4,1.7e-4 -1.23437,1.40268 -2.52486,2.80515 -3.87144,4.20784 -5e-5,6e-5 -10e-5,1.1e-4 -1.6e-4,1.7e-4 -1.29047,1.40268 -2.55283,2.69317 -3.78721,3.87143 -1e-4,9e-5 -2e-4,1.8e-4 -3e-4,2.7e-4 -1.2343,1.12208 -2.38465,2.04797 -3.45065,2.77733 -1.7e-4,1.2e-4 -3.4e-4,2.4e-4 -5.2e-4,3.6e-4 -1.06587,0.7292 -1.96355,1.09364 -2.69286,1.09364 -2.2e-4,0 -4.4e-4,0 -6.6e-4,0 -0.67288,-2.4e-4 -1.0091,-0.3648 -1.0091,-1.094 0,-1.7e-4 0,-3.3e-4 0,-4.9e-4 6e-5,-0.50487 0.0839,-1.09425 0.25219,-1.76736 4e-5,-1.2e-4 8e-5,-2.4e-4 1.1e-4,-3.6e-4 0.22442,-0.72931 0.50509,-1.48644 0.84169,-2.27185 6e-5,-1.4e-4 1.1e-4,-2.7e-4 1.7e-4,-4.1e-4 0.33662,-0.84151 0.70113,-1.68299 1.09383,-2.5245 7e-5,-1.4e-4 1.3e-4,-2.7e-4 1.9e-4,-4.1e-4 0.39271,-0.84151 0.78585,-1.65485 1.17854,-2.44027 9e-5,-1.8e-4 1.9e-4,-3.7e-4 2.8e-4,-5.5e-4 0.2805,-0.56103 0.61684,-1.29047 1.00948,-2.18794 8e-5,-1.5e-4 1.5e-4,-2.9e-4 2.2e-4,-4.4e-4 0.44879,-0.89763 0.8414,-1.85108 1.17801,-2.86089 7e-5,-1.7e-4 1.3e-4,-3.3e-4 1.9e-4,-4.9e-4 0.39268,-1.00982 0.72958,-2.02 1.01008,-3.02981 3e-5,-8e-5 5e-5,-1.7e-4 7e-5,-2.5e-4 0.28051,-1.00988 0.42057,-1.90766 0.42057,-2.69313 0,-8e-5 0,-1.6e-4 0,-2.4e-4 -5e-5,-0.95375 -0.33648,-1.68279 -1.00975,-2.18774 -5e-5,-5e-5 -1.1e-4,-9e-5 -1.6e-4,-1.4e-4 -0.67329,-0.56101 -1.51537,-0.84167 -2.52527,-0.84167 -10e-5,0 -2.1e-4,0 -3.1e-4,0 -2.58095,8e-5 -5.10567,1.03803 -7.57442,3.11402 -5e-5,4e-5 -10e-5,8e-5 -1.5e-4,1.2e-4 -2.46878,2.01994 -4.85346,4.57285 -7.15393,7.65885 3e-5,-9e-5 7e-5,-1.8e-4 1.1e-4,-2.7e-4 0.44884,-1.12214 0.89773,-2.41259 1.34658,-3.87133 2e-5,-6e-5 3e-5,-1.3e-4 5e-5,-1.9e-4 0.44885,-1.51488 0.6733,-2.66474 0.6733,-3.45025 0,-7e-5 0,-1.4e-4 0,-2.1e-4 -5e-5,-0.84157 -0.28025,-1.65499 -0.8413,-2.44046 -4e-5,-7e-5 -9e-5,-1.3e-4 -1.3e-4,-1.9e-4 -0.50498,-0.78542 -1.2627,-1.17855 -2.272599,-1.17855 -9e-5,0 -1.7e-4,0 -2.5e-4,0 -1.00992,7e-5 -2.13215,0.449 -3.36647,1.34668 -9e-5,6e-5 -1.7e-4,1.3e-4 -2.5e-4,1.9e-4 -0.50496,0.39278 -1.17827,1.00986 -2.01978,1.85138 -7e-5,7e-5 -1.4e-4,1.3e-4 -2.1e-4,2e-4 -0.84159,0.8416 -1.73886,1.79563 -2.69265,2.86164 -4e-5,4e-5 -8e-5,8e-5 -1.2e-4,1.2e-4 -0.95383,1.00994 -1.90789,2.07598 -2.8617201,3.19814 -4e-5,4e-5 -7e-5,9e-5 -1.1e-4,1.3e-4 -0.89772,1.06604 -1.71117,2.02009 -2.44057,2.86171 -5e-5,5e-5 -10e-5,1e-4 -1.4e-4,1.4e-4 -0.14841,0.14844 -0.24315,0.31004 -0.29338,0.48303 -4e-5,4e-5 -8e-5,8e-5 -1.1e-4,1.2e-4 -3.68175,4.10629 -6.7933996,6.1654 -9.3316206,6.1654 -9e-5,-1e-5 -1.8e-4,-2e-5 -2.7e-4,-3e-5 -1.11102,-0.10465 -2.38001,-0.36748 -3.28222,-1.09396 -7e-5,-6e-5 -1.4e-4,-1.2e-4 -2.1e-4,-1.8e-4 -0.84648,-0.72209 -1.57083,-1.59922 -1.85135,-2.77743 -2e-5,-1e-4 -4e-5,-1.9e-4 -6e-5,-2.9e-4 -0.2244,-1.17818 -0.33636,-2.15979 -0.33636,-2.94527 0,-7e-5 0,-1.4e-4 0,-2.1e-4 2e-5,-0.8416 0.11199,-1.82375 0.33642,-2.94586 2e-5,-1e-4 4e-5,-1.9e-4 6e-5,-2.9e-4 0.28055,-1.1782 0.64508,-2.29991 1.09392,-3.36592 5e-5,-9e-5 9e-5,-1.8e-4 1.3e-4,-2.6e-4 0.50496,-1.06597 1.06634,-1.96374 1.68349,-2.69311 6e-5,-6e-5 1.1e-4,-1.2e-4 1.7e-4,-1.8e-4 0.67327,-0.72931 1.40234,-1.09433 2.18781,-1.09433 1.1e-4,0 2.2e-4,0 3.3e-4,0 0.33652,1.1e-4 0.61712,0.16885 0.84148,0.5054 4e-5,4e-5 8e-5,9e-5 1.1e-4,1.3e-4 0.22439,0.28054 0.39257,0.64505 0.50477,1.09386 2e-5,6e-5 4e-5,1.3e-4 6e-5,1.9e-4 0.11218,0.39271 0.16841,0.81345 0.16841,1.26226 1e-5,7e-5 2e-5,1.4e-4 3e-5,2.2e-4 0.0561,0.44878 0.0842,0.81326 0.0842,1.09377 0,8e-5 0,1.7e-4 0,2.6e-4 -4e-5,2.1321 -0.44897,4.20842 -1.34669,6.22831 -3e-5,5e-5 -5e-5,1.1e-4 -8e-5,1.6e-4 -0.59564,1.30295 -0.99213,2.08248 -1.78544,3.31133 4e-5,8e-5 9e-5,1.6e-4 1.3e-4,2.4e-4 0.50566,0.97293 1.19139,0.92549 1.87766,0.87502 3e-5,-5e-5 6e-5,-1.1e-4 1e-4,-1.6e-4 0.79536,-1.29574 1.28508,-2.12334 1.92766,-3.59748 4e-5,-9e-5 8e-5,-1.8e-4 1.2e-4,-2.7e-4 0.953791,-2.18822 1.4308006,-4.48901 1.4308006,-6.90164 0,-9e-5 0,-1.8e-4 0,-2.8e-4 -2e-5,-0.56102 -0.0563,-1.17807 -0.16847,-1.85129 -10e-6,-1.1e-4 -3e-5,-2.2e-4 -5e-5,-3.3e-4 -0.11223,-0.6732 -0.3085496,-1.31835 -0.5890596,-1.93546 -3e-5,-1e-4 -7e-5,-2e-4 -1.1e-4,-3e-4 -0.22445,-0.61708 -0.58897,-1.12164 -1.093881,-1.51434 -8e-5,-8e-5 -1.6e-4,-1.5e-4 -2.4e-4,-2.2e-4 -0.50495,-0.44874 -1.12253,-0.67312 -1.85184,-0.67312 0,0 0,0 0,0 m -22.2546303,0.0841 c -8e-5,0 -1.6e-4,0 -2.4e-4,0 m -44.509254,0.16812 c -0.67341,0 -1.42136,0.29928 -2.24439,0.89778 -0.33653,1.5e-4 -0.7103,0.14979 -1.12158,0.4489 -0.22449,0.14966 -0.67346,0.57988 -1.34684,1.29064 -0.11227,0.0749 -0.33668,0.28997 -0.67318,0.64516 -0.50281,0.56197 -1.11133,1.22968 -1.77785,1.9553 -0.25134,0.28091 -0.5555,0.61465 -0.88865,0.97734 -0.37851,1.03042 0.32283,1.25756 0.89428,1.1667 -0.18909,0.51502 0.16154,0.62852 0.44724,0.58307 0.64108,-0.71706 1.27974,-1.52448 1.78123,-2.05548 0.32048,-0.35847 0.63975,-0.7621 0.89044,-1.02754 0.63595,-0.67336 1.06616,-1.08484 1.29064,-1.23451 0.3179,-0.33658 0.53295,-0.54226 0.64515,-0.61706 0.56117,-0.41153 1.02857,-0.61746 1.40271,-0.61751 0.28046,-0.20564 0.51405,-0.30853 0.70104,-0.30853 0.26191,0 0.43036,0.0934 0.50524,0.28043 0.13082,5e-5 0.21494,0.0468 0.25233,0.14022 0.0748,0.18712 0.11239,0.41185 0.11243,0.67379 0.0373,0.0935 0.056,0.20568 0.056,0.33648 0,0.59858 -0.18714,1.44026 -0.5612,2.52513 -5e-5,0.29924 -0.0936,0.71997 -0.28061,1.26224 -0.33668,1.08486 -0.76688,2.26331 -1.29059,3.53521 -0.16832,0.54234 -0.38339,1.13147 -0.64521,1.76731 -0.52372,1.2719 -1.10357,2.56251 -1.73952,3.87183 -0.26181,0.63583 -0.55169,1.28102 -0.86961,1.93556 -0.59854,1.2719 -1.1784,2.41287 -1.73954,3.42294 -0.29921,0.63582 -0.58909,1.20619 -0.86961,1.71112 -0.18708,0.37416 -0.28051,0.65478 -0.28056,0.84191 -0.0934,0.18689 -0.14008,0.32707 -0.14008,0.42054 0,0.48635 0.24304,0.72944 0.72933,0.7295 6e-5,0.24303 0.12158,0.36449 0.36466,0.36449 0.0749,0 0.18711,-0.0375 0.33681,-0.11231 0.0374,-7e-5 0.0934,-0.0188 0.16807,-0.0562 0.1497,-0.0374 0.29942,-0.16833 0.44912,-0.3928 0.0747,-0.0188 0.14948,-0.0842 0.22422,-0.19632 0.2245,-0.37415 0.54259,-0.91657 0.95411,-1.62739 0.11222,-0.18702 0.27118,-0.45809 0.47681,-0.81328 0.41152,-0.74823 0.87924,-1.55243 1.40298,-2.41287 0.2057,-0.37399 0.43949,-0.77596 0.70127,-1.20603 0.56114,-0.89781 1.15975,-1.83322 1.79569,-2.80585 0.28052,-0.44883 0.57978,-0.91645 0.89769,-1.40268 0.63596,-0.97263 1.29047,-1.88895 1.96383,-2.74936 0.31792,-0.48622 0.64511,-0.94429 0.98173,-1.37442 1.23446,-1.53372 2.52504,-2.8618 3.87172,-3.98405 0.61717,-0.76677 1.2624,-1.43074 1.93568,-1.99181 1.384134,-1.12227 2.730994,-1.68342 4.040324,-1.68348 0.69193,-0.56097 1.36524,-0.84144 2.01977,-0.84144 0.29933,0 0.5237,0.0559 0.67339,0.16813 0.14952,2e-5 0.26159,0.028 0.33637,0.0841 0.18713,0.0748 0.28096,0.31826 0.28105,0.72977 0.0933,0.0375 0.14011,0.15919 0.14011,0.36473 0,0.33674 -0.075,0.767 -0.22462,1.29078 -3e-5,0.16829 -0.0375,0.3833 -0.11231,0.64502 -0.14964,0.48634 -0.3368,1.02873 -0.56126,1.6273 -0.0748,0.24309 -0.16835,0.5142 -0.28055,0.81338 -0.22446,0.56117 -0.46753,1.14106 -0.7294,1.73963 -0.1122,0.28049 -0.23369,0.57033 -0.36459,0.86951 -0.26187,0.59859 -0.52369,1.15973 -0.78557,1.68349 -0.1309,0.29918 -0.26176,0.57964 -0.39265,0.84142 -0.63595,1.30931 -1.19706,2.54369 -1.68339,3.70337 -0.3179,0.65453 -0.5984,1.2716 -0.84152,1.85133 -0.448904,1.15968 -0.673574,2.151 -0.673604,2.97402 -0.22438,0.57971 -0.33667,1.07527 -0.33667,1.48669 0,0.48635 0.14964,0.95408 0.4489,1.40302 3e-5,0.24309 0.0748,0.47686 0.22444,0.70125 0.336704,0.41152 0.860674,0.61746 1.571434,0.61751 0.16834,0.20563 0.43026,0.30853 0.78553,0.30853 0.67341,0 1.4401,-0.26179 2.30054,-0.78548 0.3366,-6e-5 0.71982,-0.13096 1.1499,-0.39274 0.8604,-0.56114 1.73957,-1.25348 2.63737,-2.07646 0.43013,-0.28054 0.86963,-0.62666 1.31846,-1.03808 0.89781,-0.823 1.79572,-1.72056 2.69354,-2.69318 0.44882,-0.41144 0.8977,-0.86014 1.34652,-1.34637 0.23458,-0.25335 0.43411,-0.47151 0.66163,-0.7178 0.11719,-0.12656 0.21688,-0.23557 0.33056,-0.35862 -0.11313,0.61172 -0.17228,1.18859 -0.1723,1.7276 -0.0565,0.30574 -0.0861,0.59406 -0.0861,0.86346 0,1.23449 0.33679,2.33831 1.01011,3.31096 4e-5,0.61712 0.16843,1.16891 0.50505,1.65514 0.63595,0.93522 1.72064,1.40261 3.25435,1.40267 0.31797,0.46747 0.86026,0.70108 1.627,0.70108 1.75822,0 3.75958,-0.74787 6.00409,-2.24413 0.87898,-1e-4 1.8795,-0.37403 3.00156,-1.12207 1.6892,-1.10767 3.39903,-2.55474 5.12922,-4.33886 0.84452,-0.5538 1.69935,-1.27728 2.56437,-2.16927 -0.1069,0.61241 -0.1616,1.19895 -0.16161,1.75791 -0.0534,0.30609 -0.0807,0.59924 -0.0807,0.87862 0,0.56117 0.075,1.12231 0.22462,1.68348 2e-5,0.28048 0.0375,0.56095 0.11231,0.84143 0.14964,0.56117 0.3927,1.06606 0.72938,1.51501 0.0748,0.28047 0.19632,0.53281 0.36461,0.7572 0.29929,0.44893 0.69201,0.82327 1.17833,1.12258 0.14961,0.22436 0.34592,0.41145 0.589,0.56104 0.48635,0.26188 1.06623,0.3928 1.73961,0.39284 0.24311,0.13086 0.53296,0.19627 0.86953,0.19627 1.30932,0 2.52529,-0.39302 3.64757,-1.17857 0.65453,-5e-5 1.26239,-0.19656 1.82342,-0.58928 0.7699803,-0.53899 1.1399203,-0.72477 1.8217803,-1.38696 0.38487,-0.2694 0.56981,-0.36229 0.91068,-0.69333 -0.0718,-0.68305 -0.53672,-0.8916 -1.10158,-0.91727 -0.036,-0.34129 -0.26839,-0.44547 -0.55075,-0.45826 -0.45211,0.40978 -0.74229,0.60372 -1.2814603,1.0135 -0.22593,0.20476 -0.37099,0.30171 -0.64048,0.50652 -0.93522,0.71077 -1.96403,1.06635 -3.08629,1.06639 -0.46754,0.35528 -0.98185,0.533 -1.54289,0.533 -0.86045,0 -1.49662,-0.33679 -1.9082,-1.01011 -0.43002,-8e-5 -0.74795,-0.16847 -0.95363,-0.50505 -0.37412,-0.6734 -0.56096,-1.4401 -0.561,-2.30053 -0.18695,-0.3366 -0.2803,-0.71983 -0.2803,-1.1499 0,-0.82305 0.14965,-1.73975 0.4489,-2.74984 4e-5,-0.41139 0.0749,-0.86959 0.22445,-1.37446 0.29927,-1.04745 0.72946,-2.07626 1.29058,-3.08631 0.14963,-0.52362 0.3647,-1.03793 0.64522,-1.54286 0.56113,-1.01004 1.23438,-1.98261 2.01996,-2.91784 0.28053,-0.50492 0.6171,-0.99112 1.00982,-1.45864 0.823,-0.97263 1.75806,-1.79555 2.8055,-2.46893 0.41143,-0.48621 0.8788903,-0.89758 1.4025203,-1.2342 0.22449,-0.14967 0.33704,-0.35559 0.33709,-0.61747 0.11211,-0.0748 0.1683,-0.17771 0.1683,-0.30857 0,-0.18713 -0.075,-0.33686 -0.22462,-0.44918 -7e-5,-0.0934 -0.0376,-0.16812 -0.11231,-0.22417 -0.1497,-0.1497 -0.31816,-0.22442 -0.50527,-0.22449 -0.0748,-0.0747 -0.15888,-0.11192 -0.25231,-0.11192 -0.0749,0 -0.1871003,0.0371 -0.3368003,0.11196 -0.0374,8e-5 -0.0934,0.0186 -0.16807,0.056 -1.19709,0.78559 -2.24466,1.70224 -3.14249,2.74968 -0.59842,0.39273 -1.12209,0.85099 -1.57092,1.37461 -0.89782,1.04746 -1.66449,2.13217 -2.30046,3.25444 -0.4488,0.52364 -0.83206,1.06589 -1.14998,1.62693 -0.28839,0.54074 -0.54116,1.08175 -0.76009,1.62249 -0.14413,0.27027 -0.27047,0.54068 -0.37989,0.81095 -0.0201,0.019 -0.0389,0.0392 -0.0557,0.0616 -0.01,0.009 -0.0192,0.0194 -0.0275,0.0305 -2.50628,2.88035 -4.82561,4.9563 -6.95783,6.22817 -1.25308,1.44009 -2.41268,2.478 -3.47874,3.1139 -2.09484,1.27186 -3.79687,1.90797 -5.10617,1.90801 -1.0473,0.63583 -1.89821,0.95383 -2.55279,0.95383 -0.97264,0 -1.68341,-0.28054 -2.13235,-0.84164 -0.48619,-4e-5 -0.84149,-0.14031 -1.06591,-0.42082 -0.41152,-0.59858 -0.61711,-1.38436 -0.61716,-2.35701 -0.20564,-0.29923 -0.30836,-0.69201 -0.30836,-1.17817 0,-0.97264 0.16804,-2.05735 0.50471,-3.25442 2.3e-4,-0.48629 0.0845,-1.0286 0.25299,-1.62708 3.4785,-0.74813 6.05936,-1.79557 7.74255,-3.14214 1.73952,-0.37415 3.03016,-0.89798 3.87192,-1.57139 1.7205,-1.38395 2.58075,-2.73065 2.58075,-4.03981 0.86035,-0.69202 1.29053,-1.36541 1.29053,-2.02003 0,-0.78563 -0.26179,-1.4027 -0.78548,-1.85168 -6e-5,-0.39263 -0.13096,-0.70102 -0.39274,-0.92541 -0.52376,-0.44893 -1.21579,-0.67362 -2.07621,-0.67368 -0.26182,-0.22433 -0.60774,-0.3366 -1.03781,-0.3366 -1.2345,0 -2.41297,0.44894 -3.53524,1.3467 -0.61727,1.6e-4 -1.20652,0.22474 -1.76769,0.67367 -1.12204,0.8977 -2.1319,2.00099 -3.02955,3.31006 -0.56119,0.44901 -1.06628,1.00084 -1.51525,1.65559 -0.71706,1.09126 -1.30195,2.24868 -1.75914,3.46985 -0.35859,0.54569 -0.65108,1.12446 -0.87971,1.73513 -0.79533,0.90076 -1.6245,1.80139 -2.48923,2.70215 -0.39759,0.4503 -0.8121,0.90053 -1.24439,1.35083 -0.86041,0.93523 -1.70207,1.79564 -2.52507,2.58123 -0.43012,0.46752 -0.85087,0.89764 -1.2623,1.29037 -0.82299,0.74818 -1.59,1.36554 -2.30078,1.85187 -0.41142,0.37401 -0.79485,0.68262 -1.15017,0.92574 -0.71081,0.48634 -1.30912,0.72944 -1.79549,0.7295 -0.35547,0.24303 -0.65472,0.36449 -0.89802,0.36449 -0.44845,-2.4e-4 -0.67286,-0.24328 -0.67286,-0.72933 -0.22444,0 -0.33676,-0.12152 -0.33676,-0.36466 0,-0.33675 0.0563,-0.72985 0.16846,-1.17882 7e-5,-0.16839 0.0282,-0.36494 0.0843,-0.58939 0.14961,-0.48618 0.33637,-0.99089 0.56075,-1.51445 0.0749,-0.24328 0.16832,-0.49583 0.2806,-0.75781 0.22439,-0.56097 0.46772,-1.12191 0.72951,-1.68287 0.11228,-0.28069 0.23404,-0.56136 0.36502,-0.84204 0.26179,-0.56097 0.52351,-1.10315 0.78529,-1.62671 0.13102,-0.28074 0.262,-0.55208 0.39302,-0.81411 0.18698,-0.374 0.41118,-0.86024 0.6729,-1.45845 0.0936,-0.18718 0.2058,-0.43054 0.3368,-0.72994 0.29916,-0.59838 0.56088,-1.23395 0.78526,-1.90711 0.14969,-0.29942 0.28065,-0.61744 0.39294,-0.95427 0.26176,-0.67315 0.48633,-1.34656 0.67332,-2.01971 0.13092,-0.33666 0.24324,-0.67345 0.33676,-1.01011 0.18705,-0.6734 0.28048,-1.27205 0.2805,-1.79582 0.0935,-0.33656 0.14014,-0.63576 0.14014,-0.89755 0,-0.63599 -0.22429,-1.12215 -0.67317,-1.45888 -1.6e-4,-0.31794 -0.11242,-0.56099 -0.33691,-0.72937 -0.44883,-0.37388 -1.00979,-0.56093 -1.68295,-0.56093 -0.22465,-0.18704 -0.50539,-0.28061 -0.84226,-0.28061 -1.72049,1.7e-4 -3.40384,0.69214 -5.049534,2.07602 -0.86046,8e-5 -1.70234,0.34615 -2.52539,1.03825 -1.64579,1.3466 -3.23516,3.04849 -4.76875,5.10573 -0.82288,0.67314 -1.61754,1.52394 -2.38431,2.55244 0.29918,-0.74801 0.5984,-1.60818 0.89758,-2.58052 0.14966,-0.37419 0.29934,-0.80449 0.449,-1.29091 0.29918,-1.00979 0.44845,-1.77628 0.44845,-2.29991 0.14962,-0.50513 0.22427,-0.88857 0.22427,-1.15056 -9e-5,-0.56095 -0.18688,-1.10314 -0.56086,-1.62671 -8e-5,-0.28067 -0.0936,-0.55196 -0.28067,-0.81394 -0.33666,-0.52344 -0.84175,-0.78544 -1.51491,-0.78544 -0.16833,-0.26185 -0.42092,-0.39292 -0.75758,-0.39292 0,0 0,0 0,0 m 26.356024,1.45899 m 13.178,0.72949 c 0.13105,0 0.28082,0.0373 0.44928,0.11214 0.26176,8e-5 0.56091,0.0747 0.89741,0.22428 0.18722,0.0749 0.28097,0.21523 0.28115,0.42104 0.3737,0.14968 0.56066,0.43014 0.56066,0.84141 0,0.20594 -0.0842,0.43061 -0.25253,0.67395 -1.6e-4,0.41131 -0.16855,0.86004 -0.50505,1.34608 -0.1497,0.24327 -0.39298,0.49597 -0.72972,0.75794 -0.29927,0.48617 -0.78562,0.99123 -1.45877,1.5148 -0.33683,0.26197 -0.76717,0.51452 -1.29103,0.75779 -0.67325,0.52356 -1.53344,1.02826 -2.58057,1.51443 -0.52382,0.2432 -1.15047,0.45835 -1.88003,0.64544 -1.04731,0.48621 -2.30022,0.91634 -3.7589,1.29036 0.13098,-0.29941 0.31801,-0.64553 0.56122,-1.03845 0.26184,-0.59842 0.63571,-1.29023 1.12188,-2.07558 0.2432,-0.39287 0.51459,-0.7577 0.81391,-1.09445 0.48627,-0.78548 1.02892,-1.51488 1.62739,-2.18817 0.29922,-0.3553 0.61705,-0.64517 0.95367,-0.86958 0.59859,-0.71079 1.2344,-1.29067 1.90781,-1.73961 0.35528,-0.24303 0.71992,-0.36449 1.0939,-0.36449 0.71073,-0.48629 1.44019,-0.72933 2.18832,-0.72933 0,0 0,0 0,0"
       style="font-style:normal;font-variant:normal;font-weight:normal;font-stretch:normal;font-size:84.16508484px;line-height:1.25;font-family:'Learning Curve';-inkscape-font-specification:'Learning Curve, Normal';font-variant-ligatures:normal;font-variant-caps:normal;font-variant-numeric:normal;font-feature-settings:normal;text-align:start;letter-spacing:0px;word-spacing:0px;writing-mode:lr-tb;text-anchor:start;opacity:1;fill:#4790ff;fill-opacity:1;stroke:#4790ff;stroke-width:2.64583325;stroke-miterlimit:4;stroke-dasharray:none;stroke-opacity:1;filter:url(#filter1005)"
       id="path874" />
    <path
       style="font-style:normal;font-variant:normal;font-weight:normal;font-stretch:normal;font-size:84.16508484px;line-height:1.25;font-family:'Learning Curve';-inkscape-font-specification:'Learning Curve, Normal';font-variant-ligatures:normal;font-variant-caps:normal;font-variant-numeric:normal;font-feature-settings:normal;text-align:start;letter-spacing:0px;word-spacing:0px;writing-mode:lr-tb;text-anchor:start;opacity:0.58800001;fill:#000000;fill-opacity:1;stroke:none;stroke-width:2.10412717"
       d="m 0.29692979,-196.97577 c -1.178311,0 -2.24438199,0.44892 -3.19825199,1.34668 -0.897764,0.89776 -1.683126,1.99197 -2.356447,3.28249 -0.617212,1.23441 -1.09426,2.55256 -1.430921,3.9553 -0.2805491,1.40277 -0.4206461,2.60945 -0.4206461,3.61943 0,3.42273 1.0098281,5.8913 3.0297891,7.40626 0,0 1.189985,0.77228 1.851568,1.01028 0.833555,0.29983 1.76748899,0.50487 2.60914399,0.50487 2.07607001,0 4.03999281,-0.72964 5.89162681,-2.18851 1.9077408,-1.45885 3.7315714,-3.17018 5.4709844,-5.13403 0.114698,-0.11464 0.187217,-0.25746 0.223758,-0.42427 0.642501,-0.74515 1.314343,-1.52909 2.078944,-2.43705 0.953873,-1.06608 1.879332,-2.10404 2.777093,-3.11402 0.953872,-1.0661 1.823601,-1.99206 2.609143,-2.77761 0.841649,-0.84165 1.486918,-1.43068 1.935799,-1.76734 0.841649,-0.61721 1.54316,-0.92603 2.104259,-0.92603 0.39278,0 0.645361,0.14009 0.75758,0.42065 0.112221,0.28054 0.16847,0.61749 0.16847,1.01025 0,0.89777 -0.280709,2.16019 -0.84181,3.78738 -0.505,1.62719 -1.150259,3.39477 -1.9358,5.30252 -0.785539,1.90773 -1.655272,3.84354 -2.609146,5.80739 -0.89776,1.90774 -1.767496,3.61907 -2.609143,5.13405 -0.280554,0.56111 -0.420645,0.9819 -0.420645,1.26244 0,0.72944 0.364561,1.094 1.093988,1.094 0.112221,0 0.28044,-0.0562 0.50488,-0.16846 0.224442,-0.0561 0.448903,-0.25246 0.673344,-0.58911 0.336661,-0.56109 0.813707,-1.3746 1.43092,-2.44069 0.617203,-1.12219 1.318722,-2.32837 2.104263,-3.61889 0.84166,-1.34663 1.73899,-2.74966 2.69286,-4.20852 0.953869,-1.45886 1.936089,-2.83325 2.946069,-4.12377 1.851636,-2.30052 3.787435,-4.29256 5.807395,-5.97586 2.07607,-1.68329 4.095729,-2.52492 6.05958,-2.52492 0.448879,0 0.785831,0.0838 1.010269,0.25219 0.280561,0.1122 0.42065,0.47729 0.42065,1.09449 0,0.50499 -0.111973,1.15025 -0.336409,1.93582 -0.224441,0.72941 -0.50515,1.54291 -0.84181,2.44066 -0.336669,0.84166 -0.701221,1.71138 -1.09399,2.60914 -0.39277,0.89778 -0.78546,1.73937 -1.17822,2.5249 -0.953879,1.96386 -1.795491,3.8153 -2.524919,5.55469 -0.673321,1.73943 -1.010272,3.22631 -1.010272,4.46072 0,0.72944 0.224461,1.43095 0.673341,2.10427 0.504999,0.6172 1.29036,0.92604 2.35645,0.92604 1.009979,0 2.16042,-0.39268 3.450951,-1.17823 1.290528,-0.84164 2.609189,-1.88011 3.955828,-3.11452 1.346651,-1.23445 2.69343,-2.58069 4.040061,-4.03955 1.40276,-1.51497 2.7209,-2.94612 3.955321,-4.29276 0.168329,-0.16832 0.252699,-0.39279 0.252699,-0.67333 0,-0.72944 -0.33644,-1.09401 -1.009761,-1.09401 -0.280549,0 -0.533139,0.11245 -0.75758,0.33695 -1.23442,1.40274 -2.52496,2.80525 -3.871591,4.20801 -1.290528,1.40275 -2.552938,2.69328 -3.787367,3.87158 -1.23442,1.1222 -2.384872,2.04818 -3.450951,2.7776 -1.066101,0.72944 -1.96395,1.09401 -2.693379,1.09401 -0.673322,0 -1.009761,-0.36457 -1.009761,-1.09401 0,-0.50496 0.0838,-1.09451 0.25219,-1.76785 0.224439,-0.72942 0.50514,-1.48667 0.841799,-2.27221 0.33667,-0.84165 0.701231,-1.68326 1.094001,-2.52489 0.392769,-0.84166 0.78597,-1.65514 1.178729,-2.44069 0.280561,-0.5611 0.616991,-1.29074 1.009762,-2.1885 0.448879,-0.89773 0.841558,-1.85134 1.178229,-2.86132 0.39276,-1.00998 0.729719,-2.02032 1.010269,-3.0303 0.28055,-1.00998 0.420641,-1.90784 0.420641,-2.69338 0,-0.95386 -0.33643,-1.68299 -1.00975,-2.18798 -0.67332,-0.56109 -1.515449,-0.84181 -2.52543,-0.84181 -2.581061,0 -5.105881,1.03795 -7.57473,3.11403 -2.46884,2.01994 -4.853565,4.5729 -7.154085,7.65896 0.448881,-1.12219 0.897811,-2.41274 1.34669,-3.8716 0.44888,-1.51497 0.67335,-2.6649 0.67335,-3.45044 0,-0.84164 -0.280199,-1.65513 -0.841299,-2.44067 -0.50498,-0.78554 -1.26274,-1.17873 -2.272731,-1.17873 -1.00998,0 -2.132299,0.44893 -3.366719,1.34667 -0.50499,0.39277 -1.178382,1.00992 -2.020029,1.85157 -0.841653,0.84164 -1.738992,1.79574 -2.692857,2.86184 -0.953873,1.00998 -1.907969,2.07605 -2.861843,3.19825 -0.89776,1.0661 -1.71125,2.0202 -2.440678,2.86186 -0.1484889,0.14847 -0.2432739,0.31012 -0.2935209,0.48316 -3.6817953,4.10636 -6.7934883,6.16552 -9.33172831,6.16552 -1.111081,-0.10466 -2.38020299,-0.36745 -3.28249099,-1.09398 -0.846574,-0.72213 -1.571014,-1.5993 -1.851563,-2.77761 -0.224441,-1.17831 -0.336416,-2.16001 -0.336416,-2.94556 0,-0.84165 0.111975,-1.82388 0.336416,-2.94606 0.280549,-1.17832 0.645109,-2.30012 1.093988,-3.36623 0.504992,-1.06606 1.066415,-1.96393 1.683618,-2.69337 0.673322,-0.72942 1.40243999,-1.0945 2.18798099,-1.0945 0.33665896,0 0.61736796,0.16874 0.84180901,0.5054 0.224439,0.28055 0.392659,0.64511 0.504879,1.094 0.112219,0.39276 0.168465,0.81356 0.168465,1.26244 0.05611,0.44889 0.08423,0.81344 0.08423,1.09398 0,2.1322 -0.448925,4.2086 -1.34668805,6.22858 -0.59567996,1.30305 -0.99217396,2.08259 -1.78551395,3.31148 0.50567699,0.97318 1.19146399,0.92573 1.87778395,0.87525 0.79542805,-1.29582 1.28516105,-2.12343 1.92776205,-3.59763 0.953872,-2.18829 1.4309202,-4.48918 1.4309202,-6.90191 0,-0.5611 -0.056253,-1.17823 -0.1684652,-1.85157 -0.1122177,-0.67332 -0.308559,-1.31859 -0.58911,-1.93578 -0.224443,-0.61722 -0.589,-1.12188 -1.093988,-1.51465 -0.504993,-0.44888 -1.122655,-0.67333 -1.85208601,-0.67333 z m -66.76388179,0.25219 c -1.00998,0 -2.13179,0.44893 -3.366211,1.34667 -0.336658,0.22445 -1.01005,0.86971 -2.020028,1.93581 -0.754131,0.84285 -1.66682,1.84429 -2.6665,2.93263 -0.56773,1.54554 0.484308,1.88615 1.34152,1.74979 0.961549,-1.07553 1.919489,-2.2866 2.671669,-3.08303 0.953869,-1.00999 1.59914,-1.62714 1.9358,-1.85157 0.84165,-0.61721 1.542641,-0.92603 2.10375,-0.92603 0.392771,0 0.64535,0.14009 0.75757,0.42064 0.112217,0.28055 0.168471,0.6175 0.168471,1.01026 0,0.89777 -0.280712,2.16019 -0.84181,3.78738 -0.504991,1.62719 -1.150261,3.39477 -1.9358,5.30252 -0.785541,1.90773 -1.655272,3.84354 -2.609141,5.80739 -0.897759,1.90774 -1.767499,3.61907 -2.609149,5.13405 -0.280551,0.56111 -0.420641,0.9819 -0.420641,1.26244 0,0.72944 0.364561,1.094 1.09399,1.094 0.112218,0 0.280441,-0.0562 0.50488,-0.16846 0.22444,-0.0561 0.448901,-0.25246 0.67334,-0.58911 0.33666,-0.56109 0.81371,-1.3746 1.430919,-2.44069 0.617211,-1.12219 1.318721,-2.32838 2.104261,-3.61889 0.841651,-1.34663 1.739509,-2.74966 2.693381,-4.20852 0.953869,-1.45886 1.935579,-2.83325 2.94556,-4.12378 1.851629,-2.30052 3.787439,-4.29256 5.807398,-5.97586 2.076071,-1.68329 4.096242,-2.52492 6.060096,-2.52492 0.44888,0 0.785318,0.0838 1.009756,0.25219 0.280551,0.1122 0.421164,0.47729 0.421164,1.0945 0,0.50499 -0.112496,1.15025 -0.336932,1.93581 -0.224441,0.72942 -0.505148,1.54291 -0.841808,2.44067 -0.336659,0.84165 -0.70122,1.71137 -1.09399,2.60914 -0.392771,0.89777 -0.785453,1.73937 -1.178223,2.5249 -0.953869,1.96386 -1.795478,3.8153 -2.524911,5.55469 -0.67332,1.73943 -1.010274,3.22631 -1.010274,4.46072 0,0.72944 0.224464,1.43095 0.673344,2.10427 0.50499,0.6172 1.290872,0.92604 2.356963,0.92604 1.009981,0 2.159902,-0.39268 3.450433,-1.17823 1.290532,-0.84164 2.609196,-1.88011 3.955831,-3.11452 1.346642,-1.23445 2.693424,-2.58069 4.040065,-4.03955 0.351787,-0.37993 0.65099,-0.70707 0.992189,-1.07643 -0.169675,0.91748 -0.258385,1.78267 -0.258385,2.59106 0,1.85163 0.505174,3.50724 1.515154,4.9661 0.953872,1.40275 2.580845,2.10375 4.881356,2.10375 2.637166,0 5.639047,-1.1218 9.00565,-3.3662 2.533717,-1.66146 5.098378,-3.83201 7.693589,-6.50812 -0.160328,0.91849 -0.242364,1.79819 -0.242364,2.63653 0,0.84164 0.112485,1.68324 0.336931,2.5249 0.22444,0.84165 0.588999,1.59888 1.093991,2.27222 0.448878,0.6733 1.037903,1.23472 1.767332,1.68361 0.729431,0.39278 1.599164,0.5891 2.609143,0.5891 1.963853,0 3.7876827,-0.58951 5.4709858,-1.76785 1.154898,-0.80842 1.709742,-1.08704 2.732457,-2.08027 -0.107685,-1.02447 -0.805048,-1.33716 -1.652326,-1.37554 -0.678084,0.6146 -1.1132701,0.90542 -1.9219401,1.52002 -1.402752,1.06609 -2.9458737,1.59938 -4.6291767,1.59938 -1.290529,0 -2.244629,-0.50516 -2.861839,-1.51515 -0.561102,-1.00998 -0.841293,-2.15991 -0.841293,-3.45042 0,-1.23443 0.224465,-2.60932 0.673344,-4.1243 0.448881,-1.57108 1.094148,-3.1142 1.935801,-4.62917 0.841649,-1.51497 1.851476,-2.97373 3.029787,-4.37648 1.2344217,-1.45886 2.6369297,-2.69316 4.2080118,-3.70313 0.336661,-0.22444 0.505394,-0.53327 0.505394,-0.92603 0,-0.28056 -0.112483,-0.50503 -0.33693,-0.67336 -0.224442,-0.22443 -0.477025,-0.33642 -0.757576,-0.33642 -0.1122181,0 -0.2804371,0.0557 -0.5048771,0.16796 -1.795522,1.17832 -3.3667677,2.55321 -4.7134087,4.12429 -1.346641,1.57108 -2.496565,3.19806 -3.450435,4.88137 -0.432539,0.811 -0.81164,1.62242 -1.139981,2.43342 -0.02998,0.0284 -0.05816,0.0585 -0.08321,0.092 -3.759372,4.32047 -7.238298,7.43432 -10.436572,9.34207 -3.142161,1.90774 -5.69511,2.86183 -7.658961,2.86183 -1.458862,0 -2.524935,-0.42081 -3.198254,-1.26246 -0.617212,-0.89775 -0.925525,-2.07631 -0.925525,-3.53518 0,-1.45886 0.252067,-3.08584 0.757059,-4.88134 5.218234,-1.1222 9.089843,-2.69344 11.614793,-4.7134 2.581063,-2.07609 3.871599,-4.09625 3.871599,-6.06012 0,-1.1783 -0.392683,-2.10376 -1.178223,-2.77709 -0.785539,-0.67331 -1.82349,-1.01028 -3.114022,-1.01028 -1.851631,0 -3.619217,0.6734 -5.30252,2.02005 -1.683294,1.34664 -3.198299,3.00172 -4.54494,4.96558 -1.075772,1.63704 -1.953236,3.37337 -2.639115,5.20536 -1.19292,1.35106 -2.436601,2.70193 -3.733624,4.05299 -1.290531,1.40275 -2.552942,2.69328 -3.787364,3.87157 -1.234421,1.12222 -2.384862,2.04819 -3.450952,2.77762 -1.06609,0.72943 -1.963428,1.094 -2.692858,1.094 -0.673322,0 -1.010274,-0.36457 -1.010274,-1.094 0,-0.50499 0.08437,-1.09451 0.252698,-1.76785 0.224439,-0.72943 0.504632,-1.48666 0.84129,-2.27221 0.336661,-0.84165 0.701736,-1.68326 1.094507,-2.5249 0.392773,-0.84164 0.785453,-1.65514 1.178225,-2.44067 0.280547,-0.56111 0.616986,-1.29075 1.009755,-2.1885 0.448883,-0.89777 0.841562,-1.85135 1.178223,-2.86133 0.392772,-1.00998 0.729723,-2.02032 1.010275,-3.03031 0.280549,-1.00997 0.420646,-1.90782 0.420646,-2.69337 0,-0.95387 -0.336442,-1.68299 -1.009755,-2.18798 -0.673324,-0.5611 -1.514931,-0.8418 -2.524912,-0.8418 -2.581062,0 -5.106405,1.03794 -7.575245,3.11402 -2.46885,2.01996 -4.853061,4.5729 -7.15358,7.65896 0.448879,-1.12221 0.89781,-2.41273 1.346689,-3.8716 0.44888,-1.51498 0.67283,-2.6649 0.67283,-3.45043 0,-0.84165 -0.280189,-1.65514 -0.841289,-2.44069 -0.504991,-0.78554 -1.262751,-1.17873 -2.27273,-1.17873 z m 39.53402,2.18847 c 0.392772,0 0.841699,0.11198 1.346687,0.33644 0.561103,0.22444 0.841809,0.64522 0.841809,1.26244 2e-6,0.61721 -0.252585,1.29061 -0.757576,2.02002 -0.448878,0.72944 -1.178516,1.4872 -2.188496,2.27275 -1.00998,0.78554 -2.300518,1.54277 -3.871598,2.27222 -1.571082,0.72943 -3.45064,1.37469 -5.638932,1.9358 0.39277,-0.89778 0.95367,-1.93572 1.683102,-3.11404 0.729424,-1.17832 1.543431,-2.2725 2.441194,-3.28247 0.89776,-1.06609 1.851342,-1.93583 2.861323,-2.60914 1.066091,-0.72944 2.160287,-1.09401 3.282487,-1.09402 z"
       id="path1039"
       inkscape:connector-curvature="0"
       sodipodi:nodetypes="scccscascccccccssscsccsscccccccccscccccscscsccsscccsssccsccccscscccscscccccccccscccscccscccsscccssccccscssscsccssccccsccscscccccscscsccscsccscccsccccscscsccscscsccccccsccsssccccccsscccccccscscccscssccccsccccs" />
    <path
       sodipodi:nodetypes="scccscascccccccssscsccsscccccccccscccccscscsccsscccsssccsccccscscccscscccccccccscccscccscccsscccssccccscssscsccssccccsccscscccccscscsccscsccscccsccccscscsccscscsccccccsccsssccccccsscccccccscscccscssccccsccccs"
       inkscape:connector-curvature="0"
       id="path823"
       d="m -2.843019,-198.54574 c -1.178311,0 -2.244383,0.44892 -3.198254,1.34668 -0.897763,0.89776 -1.683126,1.99196 -2.356445,3.28249 -0.617212,1.23442 -1.094261,2.55256 -1.430922,3.95531 -0.280549,1.40276 -0.420646,2.60944 -0.420646,3.61942 0,3.42272 1.009828,5.8913 3.029789,7.40626 0,0 1.189985,0.77228 1.851567,1.01027 0.833557,0.29985 1.767491,0.50488 2.609144,0.50488 2.07607197,0 4.039994,-0.72964 5.891628,-2.1885 1.907741,-1.45885 3.731572,-3.17019 5.470985,-5.13404 0.114697,-0.11469 0.187217,-0.25746 0.223758,-0.42426 0.642501,-0.74517 1.314342,-1.5291 2.078943,-2.43706 0.953873,-1.06609 1.879332,-2.10404 2.777093,-3.11403 0.953873,-1.06609 1.823601,-1.99206 2.609143,-2.7776 0.841649,-0.84165 1.486919,-1.43068 1.935799,-1.76734 0.84165,-0.61721 1.54316,-0.92604 2.10426,-0.92604 0.39278,0 0.64536,0.1401 0.75758,0.42065 0.11222,0.28055 0.16847,0.6175 0.16847,1.01027 0,0.89776 -0.28071,2.16018 -0.84181,3.78737 -0.505,1.62719 -1.15026,3.39477 -1.9358,5.30252 -0.78554,1.90774 -1.655273,3.84354 -2.609147,5.80738 -0.89776,1.90774 -1.767496,3.61908 -2.609143,5.13406 -0.280554,0.5611 -0.420645,0.9819 -0.420645,1.26245 0,0.72943 0.364561,1.09399 1.093988,1.09399 0.112221,0 0.28044,-0.0562 0.504881,-0.16846 0.224441,-0.0561 0.448902,-0.25245 0.673343,-0.58912 0.336661,-0.56109 0.813708,-1.37459 1.43092,-2.44067 0.617203,-1.12221 1.318723,-2.32838 2.104263,-3.6189 0.84166,-1.34663 1.73899,-2.74966 2.69286,-4.20852 0.95387,-1.45886 1.93609,-2.83325 2.94607,-4.12378 1.851636,-2.30051 3.787435,-4.29256 5.807395,-5.97586 2.07607,-1.6833 4.09573,-2.52491 6.05958,-2.52492 0.44888,0 0.78583,0.0838 1.01027,0.25219 0.28056,0.11222 0.42065,0.47729 0.42065,1.0945 0,0.50499 -0.11197,1.15026 -0.33641,1.9358 -0.22444,0.72943 -0.50515,1.54292 -0.84181,2.44068 -0.33667,0.84165 -0.70122,1.71138 -1.09399,2.60914 -0.39277,0.89777 -0.78546,1.73937 -1.17822,2.52491 -0.95388,1.96385 -1.79549,3.81529 -2.52492,5.55469 -0.67332,1.73942 -1.01027,3.22629 -1.01027,4.46071 0,0.72944 0.22446,1.43095 0.67334,2.10427 0.505,0.6172 1.29036,0.92604 2.35645,0.92604 1.00998,0 2.16042,-0.39268 3.45095,-1.17822 1.29053,-0.84165 2.60919,-1.88012 3.95583,-3.11454 1.34665,-1.23443 2.69343,-2.58069 4.04006,-4.03954 1.40276,-1.51497 2.7209,-2.94612 3.955321,-4.29276 0.16833,-0.16832 0.2527,-0.39279 0.2527,-0.67334 0,-0.72943 -0.336441,-1.09399 -1.009761,-1.09399 -0.28055,0 -0.53314,0.11249 -0.75758,0.33693 -1.23442,1.40274 -2.52496,2.80526 -3.87159,4.20801 -1.29053,1.40275 -2.55294,2.69328 -3.78737,3.87159 -1.23442,1.1222 -2.38487,2.04818 -3.45095,2.7776 -1.0661,0.72944 -1.96395,1.094 -2.69338,1.094 -0.67332,0 -1.00976,-0.36456 -1.00976,-1.094 0,-0.50498 0.0838,-1.09452 0.25219,-1.76785 0.22444,-0.72942 0.50514,-1.48667 0.8418,-2.27221 0.33667,-0.84165 0.70123,-1.68325 1.094,-2.5249 0.39277,-0.84165 0.78597,-1.65513 1.17873,-2.44068 0.28056,-0.5611 0.61699,-1.29073 1.00976,-2.18849 0.44888,-0.89776 0.84156,-1.85135 1.17823,-2.86133 0.39276,-1.00998 0.72972,-2.02032 1.01027,-3.0303 0.28055,-1.00998 0.42064,-1.90784 0.42064,-2.69338 0,-0.95387 -0.33643,-1.68299 -1.00975,-2.18798 -0.67332,-0.5611 -1.51545,-0.84181 -2.52543,-0.84181 -2.58106,0 -5.10588,1.03795 -7.57473,3.11402 -2.468839,2.01996 -4.853565,4.57291 -7.154085,7.65897 0.44888,-1.1222 0.89781,-2.41274 1.34669,-3.8716 0.44888,-1.51497 0.67335,-2.6649 0.67335,-3.45044 0,-0.84165 -0.2802,-1.65513 -0.8413,-2.44067 -0.50498,-0.78554 -1.26274,-1.17874 -2.27273,-1.17874 -1.00998,0 -2.1323,0.44893 -3.36672,1.34668 -0.50499,0.39277 -1.178381,1.00992 -2.020028,1.85157 -0.841653,0.84165 -1.738993,1.79575 -2.692858,2.86184 -0.953873,1.00998 -1.907969,2.07606 -2.861842,3.19826 -0.89776,1.06609 -1.711251,2.02019 -2.440678,2.86184 -0.148489,0.14848 -0.243274,0.31012 -0.293521,0.48317 -3.681796,4.10637 -6.79348903,6.16551 -9.331729,6.16551 -1.111081,-0.10464 -2.380203,-0.36745 -3.28249,-1.09398 -0.846574,-0.72213 -1.571014,-1.5993 -1.851565,-2.77761 -0.22444,-1.17831 -0.336415,-2.16002 -0.336415,-2.94556 0,-0.84165 0.111975,-1.82387 0.336415,-2.94607 0.280551,-1.17831 0.64511,-2.30011 1.093989,-3.36621 0.504992,-1.06608 1.066414,-1.96394 1.683618,-2.69337 0.673322,-0.72943 1.40244,-1.09451 2.187982,-1.09451 0.336659,0 0.617368,0.16874 0.841809,0.5054 0.224438,0.28055 0.392658,0.64511 0.504878,1.09399 0.11222,0.39277 0.168466,0.81357 0.168466,1.26245 0.05611,0.44888 0.08423,0.81344 0.08423,1.09399 0,2.13219 -0.448926,4.2086 -1.346689,6.22857 -0.59568,1.30305 -0.992174,2.08259 -1.785514,3.31149 0.505677,0.97318 1.191463,0.92573 1.877785,0.87526 0.795427,-1.29583 1.28516,-2.12344 1.92776197,-3.59764 0.95387,-2.1883 1.430919,-4.48918 1.430919,-6.90191 0,-0.5611 -0.05625,-1.17824 -0.168465,-1.85157 -0.112218,-0.67332 -0.30856,-1.31858 -0.589111,-1.93579 -0.224441,-0.61721 -0.588999,-1.12187 -1.093988,-1.51464 -0.50499197,-0.44888 -1.12265397,-0.67334 -1.85208397,-0.67334 z m -66.763884,0.25218 c -1.00998,0 -2.13179,0.44893 -3.36621,1.34668 -0.33666,0.22444 -1.01005,0.86971 -2.02003,1.9358 -0.75413,0.84286 -1.66682,1.84431 -2.6665,2.93264 -0.56773,1.54554 0.48431,1.88615 1.34152,1.74977 0.96155,-1.07552 1.91949,-2.28659 2.67167,-3.08302 0.95387,-1.00998 1.59914,-1.62713 1.9358,-1.85157 0.84165,-0.61721 1.54264,-0.92604 2.10375,-0.92604 0.39277,0 0.64535,0.1401 0.75757,0.42065 0.11222,0.28055 0.16847,0.6175 0.16847,1.01027 0,0.89776 -0.28071,2.16018 -0.84181,3.78737 -0.50499,1.62719 -1.15026,3.39477 -1.9358,5.30252 -0.78554,1.90774 -1.65527,3.84354 -2.60914,5.80738 -0.89776,1.90774 -1.7675,3.61908 -2.60915,5.13406 -0.28055,0.5611 -0.42064,0.9819 -0.42064,1.26245 0,0.72943 0.36456,1.09399 1.09399,1.09399 0.11222,0 0.28044,-0.0562 0.50488,-0.16846 0.22444,-0.0561 0.4489,-0.25245 0.67334,-0.58912 0.33666,-0.56109 0.81371,-1.37459 1.43092,-2.44067 0.61721,-1.12221 1.31872,-2.32838 2.10426,-3.6189 0.84165,-1.34663 1.73951,-2.74966 2.69338,-4.20852 0.95387,-1.45886 1.93558,-2.83325 2.94556,-4.12378 1.85163,-2.30051 3.78744,-4.29256 5.807399,-5.97586 2.076072,-1.6833 4.096242,-2.52492 6.060096,-2.52492 0.448879,0 0.785318,0.0838 1.009756,0.25219 0.280551,0.11222 0.421164,0.47729 0.421164,1.0945 0,0.50499 -0.112491,1.15026 -0.336931,1.9358 -0.224441,0.72943 -0.505148,1.54292 -0.841809,2.44068 -0.336659,0.84165 -0.70122,1.71138 -1.093989,2.60914 -0.392771,0.89777 -0.785453,1.73937 -1.178224,2.52491 -0.95387,1.96385 -1.795478,3.81529 -2.524911,5.55469 -0.673319,1.73942 -1.010274,3.22629 -1.010274,4.46071 0,0.72944 0.224464,1.43095 0.673343,2.10427 0.504992,0.6172 1.290873,0.92604 2.356964,0.92604 1.009981,0 2.159902,-0.39268 3.450434,-1.17822 1.290532,-0.84165 2.609196,-1.88012 3.95583,-3.11454 1.346642,-1.23443 2.693424,-2.58069 4.040066,-4.03954 0.351785,-0.37993 0.650989,-0.70708 0.992188,-1.07642 -0.169675,0.91747 -0.258385,1.78265 -0.258385,2.59105 0,1.85163 0.505175,3.50724 1.515155,4.9661 0.953871,1.40275 2.580844,2.10375 4.881356,2.10375 2.637166,0 5.639046,-1.1218 9.00565,-3.3662 2.533716,-1.66146 5.098378,-3.832 7.693588,-6.50812 -0.160327,0.9185 -0.242363,1.79819 -0.242363,2.63652 0,0.84165 0.11249,1.68326 0.336931,2.52491 0.22444,0.84165 0.588999,1.59889 1.093991,2.27221 0.448879,0.67332 1.037902,1.23474 1.767332,1.68362 0.729432,0.39278 1.599163,0.58911 2.609143,0.58911 1.963854,0 3.787683,-0.58953 5.470986,-1.76785 1.154898,-0.80843 1.709742,-1.08706 2.732457,-2.08029 -0.107682,-1.02445 -0.805047,-1.33715 -1.652325,-1.37553 -0.678085,0.61459 -1.113271,0.90543 -1.921941,1.52002 -1.402752,1.06609 -2.945874,1.59939 -4.629177,1.59939 -1.290529,0 -2.244629,-0.50518 -2.861839,-1.51516 -0.561102,-1.00997 -0.841293,-2.1599 -0.841293,-3.45043 0,-1.23441 0.224465,-2.60931 0.673344,-4.12429 0.448881,-1.57108 1.094147,-3.1142 1.9358,-4.62917 0.84165,-1.51497 1.851477,-2.97373 3.029788,-4.37648 1.234422,-1.45886 2.63693,-2.69315 4.208013,-3.70313 0.336659,-0.22444 0.505394,-0.53327 0.505394,-0.92604 0,-0.28055 -0.11249,-0.50502 -0.336931,-0.67335 -0.224441,-0.22444 -0.477025,-0.33641 -0.757576,-0.33641 -0.112221,0 -0.280437,0.0557 -0.504878,0.16795 -1.795521,1.17831 -3.366767,2.55321 -4.713407,4.12429 -1.346641,1.57109 -2.496566,3.19806 -3.450436,4.88136 -0.432538,0.81101 -0.811641,1.62243 -1.139981,2.43344 -0.02999,0.0284 -0.05817,0.0586 -0.0832,0.092 -3.759372,4.32047 -7.238299,7.43432 -10.436572,9.34206 -3.142162,1.90774 -5.695111,2.86184 -7.658962,2.86184 -1.458862,0 -2.524935,-0.42081 -3.198254,-1.26246 -0.617212,-0.89776 -0.925526,-2.07632 -0.925526,-3.53518 0,-1.45886 0.252069,-3.08583 0.75706,-4.88135 5.218234,-1.1222 9.089843,-2.69344 11.614793,-4.71341 2.581063,-2.07607 3.8716,-4.09624 3.8716,-6.06009 0,-1.17831 -0.392684,-2.10377 -1.178224,-2.77709 -0.78554,-0.67332 -1.823489,-1.01028 -3.114021,-1.01028 -1.851631,0 -3.619217,0.6734 -5.30252,2.02004 -1.683295,1.34664 -3.198299,3.00173 -4.544941,4.96558 -1.075772,1.63705 -1.953236,3.37338 -2.639115,5.20537 -1.192919,1.35106 -2.436601,2.70192 -3.733623,4.05298 -1.290532,1.40276 -2.552943,2.69328 -3.787365,3.87159 -1.234421,1.12221 -2.384861,2.04818 -3.450952,2.77761 -1.066091,0.72943 -1.963428,1.09399 -2.692858,1.09399 -0.673322,0 -1.010274,-0.36456 -1.010274,-1.09399 0,-0.50499 0.08437,-1.09452 0.252698,-1.76785 0.224438,-0.72943 0.504632,-1.48667 0.84129,-2.27221 0.336661,-0.84166 0.701736,-1.68326 1.094507,-2.5249 0.392772,-0.84166 0.785453,-1.65514 1.178224,-2.44068 0.280548,-0.5611 0.616987,-1.29074 1.009756,-2.1885 0.448882,-0.89776 0.841563,-1.85134 1.178224,-2.86132 0.392771,-1.00998 0.729723,-2.02033 1.010274,-3.03031 0.280549,-1.00998 0.420646,-1.90783 0.420646,-2.69337 0,-0.95387 -0.336442,-1.683 -1.009756,-2.18798 -0.673323,-0.5611 -1.51493,-0.84181 -2.524911,-0.84181 -2.581063,0 -5.106405,1.03795 -7.575246,3.11402 -2.46885,2.01996 -4.85306,4.57291 -7.15358,7.65896 0.44888,-1.1222 0.89781,-2.41273 1.34669,-3.8716 0.44888,-1.51497 0.67283,-2.66489 0.67283,-3.45043 0,-0.84165 -0.28019,-1.65514 -0.84129,-2.44068 -0.50499,-0.78554 -1.26275,-1.17874 -2.27273,-1.17874 z m 39.534021,2.18849 c 0.392771,0 0.841698,0.11198 1.346687,0.33642 0.561102,0.22444 0.841809,0.64524 0.841809,1.26245 2e-6,0.61721 -0.252585,1.2906 -0.757577,2.02003 -0.448878,0.72943 -1.178515,1.48719 -2.188495,2.27273 -1.009981,0.78555 -2.300518,1.54279 -3.871598,2.27222 -1.571082,0.72943 -3.45064,1.3747 -5.638932,1.9358 0.392769,-0.89777 0.953669,-1.93571 1.683102,-3.11403 0.729424,-1.17831 1.543431,-2.2725 2.441194,-3.28248 0.89776,-1.06609 1.851342,-1.93582 2.861323,-2.60915 1.066091,-0.72943 2.160286,-1.09399 3.282487,-1.09399 z"
       style="font-style:normal;font-variant:normal;font-weight:normal;font-stretch:normal;font-size:84.16508484px;line-height:1.25;font-family:'Learning Curve';-inkscape-font-specification:'Learning Curve, Normal';font-variant-ligatures:normal;font-variant-caps:normal;font-variant-numeric:normal;font-feature-settings:normal;text-align:start;letter-spacing:0px;word-spacing:0px;writing-mode:lr-tb;text-anchor:start;fill:#d5e5ff;fill-opacity:1;stroke:none;stroke-width:2.10412717" />
  </g>
</svg>
